<?xml version="1.0" encoding="utf-8"?>
<!-- Generator: Adobe Illustrator 27.5.0, SVG Export Plug-In . SVG Version: 6.00 Build 0)  -->
<svg version="1.1" xmlns="http://www.w3.org/2000/svg" xmlns:xlink="http://www.w3.org/1999/xlink" x="0px" y="0px"
	 viewBox="0 0 500 500" style="enable-background:new 0 0 500 500;" xml:space="preserve">
<g id="Background">
	<rect id="XMLID_841_" style="fill:#FFFFFF;" width="500" height="500"/>
	
		<radialGradient id="SVGID_1_" cx="158.6326" cy="337.2903" r="563.3699" gradientTransform="matrix(0 0.6251 -0.6251 0 460.8401 150.8387)" gradientUnits="userSpaceOnUse">
		<stop  offset="0" style="stop-color:#FFFFFF;stop-opacity:0"/>
		<stop  offset="0.0947" style="stop-color:#F7F7F7;stop-opacity:0.0331"/>
		<stop  offset="0.2425" style="stop-color:#E1E1E1;stop-opacity:0.0849"/>
		<stop  offset="0.425" style="stop-color:#BDBDBD;stop-opacity:0.1487"/>
		<stop  offset="0.635" style="stop-color:#8B8B8A;stop-opacity:0.2223"/>
		<stop  offset="0.8653" style="stop-color:#4B4B4B;stop-opacity:0.3029"/>
		<stop  offset="1" style="stop-color:#232322;stop-opacity:0.35"/>
	</radialGradient>
	<rect style="fill:url(#SVGID_1_);" width="500" height="500"/>
</g>
<g id="Objects">
	<g>
		<path style="opacity:0.7;fill:#BAD6FC;" d="M184.69,77.867c-0.532-8.368-7.607-13.697-15.587-13.697
			c-0.057,0-0.11,0.01-0.166,0.01c-2.75-2.082-6.258-3.246-9.974-3.246c-2.989,0-5.721,1.116-7.947,2.907
			c-1.726-4.759-6.466-7.659-11.705-7.659c-0.233,0-0.46,0.026-0.689,0.043c-4.662-6.816-12.836-10.805-21.691-10.805
			c-9.497,0-17.425,6.829-20.823,15.319c-3.022-2.631-7.089-4.117-11.413-4.117c-5.242,0-9.74,3.239-12.29,7.61
			c-0.483-0.04-0.97-0.061-1.461-0.061c-8.009,0-14.181,7.997-13.698,15.587c0.533,8.368,7.607,13.697,15.587,13.697
			c0.004,0,0.008-0.001,0.012-0.001c0.232,0.146,0.486,0.23,0.77,0.23c28.048,0,65.586,0,97.944,0c0.381,0,0.717-0.127,1.02-0.341
			C179.798,92.375,185.141,84.947,184.69,77.867z"/>
		<path style="opacity:0.7;fill:#BAD6FC;" d="M348.292,101.959c0.465-7.315,6.649-11.974,13.626-11.974
			c0.05,0,0.097,0.009,0.145,0.009c2.404-1.82,5.471-2.838,8.72-2.838c2.613,0,5.001,0.976,6.947,2.541
			c1.509-4.161,5.652-6.695,10.232-6.695c0.204,0,0.402,0.023,0.603,0.037c4.075-5.958,11.221-9.446,18.962-9.446
			c8.303,0,15.233,5.97,18.204,13.392c2.643-2.301,6.197-3.6,9.978-3.6c4.583,0,8.516,2.832,10.744,6.653
			c0.423-0.035,0.848-0.054,1.277-0.054c7.001,0,12.397,6.991,11.975,13.627c-0.466,7.315-6.65,11.974-13.626,11.974
			c-0.003,0-0.007,0-0.01,0c-0.203,0.127-0.426,0.201-0.673,0.201c-24.52,0-57.336,0-85.624,0c-0.333,0-0.627-0.111-0.892-0.298
			C352.567,114.643,347.897,108.149,348.292,101.959z"/>
		<path style="opacity:0.7;fill:#BAD6FC;" d="M170.799,122.032c0.354-5.568,5.061-9.114,10.372-9.114
			c0.037,0,0.073,0.007,0.11,0.007c1.83-1.385,4.164-2.16,6.637-2.16c1.988,0,3.806,0.743,5.287,1.934
			c1.148-3.167,4.303-5.096,7.789-5.096c0.155,0,0.306,0.018,0.458,0.028c3.103-4.535,8.541-7.189,14.434-7.189
			c6.319,0,11.594,4.544,13.855,10.193c2.011-1.751,4.717-2.739,7.594-2.739c3.488,0,6.481,2.155,8.178,5.064
			c0.321-0.027,0.645-0.041,0.973-0.041c5.329,0,9.436,5.321,9.114,10.372c-0.355,5.568-5.062,9.114-10.371,9.114
			c-0.003,0-0.006,0-0.008,0c-0.155,0.097-0.324,0.153-0.512,0.153c-18.663,0-43.641,0-65.172,0c-0.254,0-0.477-0.085-0.679-0.227
			C174.054,131.686,170.499,126.743,170.799,122.032z"/>
		<path style="opacity:0.7;fill:#BAD6FC;" d="M239.986,58.6c0.32-5.023,4.566-8.222,9.359-8.222c0.033,0,0.066,0.006,0.099,0.006
			c1.651-1.25,3.757-1.949,5.988-1.949c1.794,0,3.433,0.67,4.77,1.745c1.037-2.857,3.882-4.597,7.027-4.597
			c0.14,0,0.276,0.016,0.413,0.026c2.8-4.092,7.706-6.486,13.022-6.486c5.702,0,10.461,4.099,12.5,9.196
			c1.814-1.579,4.255-2.471,6.852-2.471c3.147,0,5.846,1.944,7.377,4.569c0.29-0.025,0.582-0.037,0.878-0.037
			c4.808,0,8.513,4.801,8.223,9.357c-0.32,5.024-4.566,8.222-9.357,8.222c-0.002,0-0.005-0.001-0.005-0.001
			c-0.141,0.088-0.293,0.138-0.463,0.138c-16.837,0-39.372,0-58.797,0c-0.229,0-0.43-0.077-0.612-0.205
			C242.923,67.31,239.716,62.851,239.986,58.6z"/>
		<path style="opacity:0.7;fill:#BAD6FC;" d="M271.521,167.644c0.281-4.415,4.014-7.227,8.226-7.227
			c0.029,0,0.058,0.005,0.087,0.005c1.451-1.098,3.302-1.713,5.263-1.713c1.577,0,3.018,0.589,4.192,1.534
			c0.911-2.511,3.412-4.041,6.177-4.041c0.123,0,0.242,0.014,0.363,0.022c2.461-3.597,6.773-5.701,11.445-5.701
			c5.012,0,9.194,3.603,10.987,8.083c1.595-1.388,3.74-2.172,6.022-2.172c2.766,0,5.139,1.709,6.484,4.016
			c0.255-0.021,0.512-0.033,0.771-0.033c4.226,0,7.482,4.22,7.228,8.225c-0.281,4.415-4.014,7.227-8.225,7.227
			c-0.002,0-0.005-0.001-0.005-0.001c-0.124,0.077-0.258,0.122-0.407,0.122c-14.799,0-34.606,0-51.68,0
			c-0.201,0-0.378-0.067-0.538-0.18C274.102,175.299,271.283,171.38,271.521,167.644z"/>
		<g>
			<g>
				
					<text transform="matrix(1 0 0 1 55.62 284.1045)" style="fill:none;stroke:#009ECE;stroke-width:2;stroke-miterlimit:10; font-family:'NexaBold'; font-size:56.6494px;">ERROR</text>
				
					<text transform="matrix(1 0 0 1 54.4252 229.9615)" style="fill:none;stroke:#1D5989;stroke-width:2;stroke-miterlimit:10; font-family:'NexaBold'; font-size:99.4819px;">404</text>
				<text transform="matrix(1 0 0 1 50.7191 226.9214)" style="fill:#009ECE; font-family:'NexaBold'; font-size:99.4819px;">404</text>
				<text transform="matrix(1 0 0 1 51.9145 281.0635)" style="fill:#1D5989; font-family:'NexaBold'; font-size:56.6494px;">ERROR</text>
			</g>
			<text transform="matrix(1 0 0 1 92.1571 326.9559)" style="fill:#FFB846; font-family:'NexaBold'; font-size:37.5098px;">oops...! </text>
			<g>
				<g>
					<g>
						
							<ellipse transform="matrix(0.7071 -0.7071 0.7071 0.7071 -140.7859 346.2825)" style="fill:#7C7C7C;" cx="347.607" cy="343.085" rx="79.047" ry="79.047"/>
					</g>
					<path style="fill:#939393;" d="M266.737,317.898c-1.595-2.203,0.133-8.366,3.859-13.758c3.727-5.394,8.04-7.979,9.633-5.776
						c1.595,2.206-0.133,8.366-3.859,13.761C272.644,317.518,268.331,320.103,266.737,317.898z"/>
					<g>
						<path style="fill:#7C7C7C;" d="M422.85,337.779c0,0,2.153-6.308,10.547-9.932l-9.02-12.293l-9.949,0.954L422.85,337.779z"/>
					</g>
					<path style="fill:#939393;" d="M395.53,357.102c1.611,2.418-3.004,8.323-10.306,13.185c-7.303,4.864-14.53,6.846-16.141,4.427
						c-1.611-2.419,3.003-8.323,10.307-13.187C386.693,356.665,393.919,354.683,395.53,357.102z"/>
					<path style="fill:#939393;" d="M345.551,420.611c0.78,2.708-3.294,4.873-9.101,4.834c-5.806-0.039-11.148-2.267-11.928-4.976
						c-0.781-2.71,3.294-4.875,9.102-4.836C339.43,415.674,344.771,417.902,345.551,420.611z"/>
					<path style="fill:#939393;" d="M283.066,384.272c-2.663,0.555-7.581-3.542-10.978-9.147c-3.399-5.606-3.994-10.6-1.332-11.152
						c2.665-0.554,7.581,3.542,10.98,9.148C285.135,378.726,285.73,383.719,283.066,384.272z"/>
					<path style="fill:#939393;" d="M419.911,307.114c2.674-0.509,7.526,4.066,10.832,10.216c3.307,6.15,3.819,11.548,1.146,12.055
						c-2.676,0.508-7.526-4.067-10.833-10.219C417.748,313.017,417.235,307.619,419.911,307.114z"/>
					<g>
						<g>
							<path style="fill:#515151;" d="M304.855,292.711c0.137,1.433-0.913,2.705-2.345,2.843c-1.433,0.137-2.705-0.913-2.843-2.345
								c-0.137-1.433,0.913-2.705,2.345-2.843C303.445,290.229,304.718,291.279,304.855,292.711z"/>
						</g>
						<g>
							<path style="fill:#515151;" d="M373.933,292.709c0.148,1.542-0.982,2.911-2.524,3.059c-1.542,0.148-2.911-0.982-3.059-2.524
								c-0.148-1.542,0.982-2.911,2.524-3.059C372.416,290.038,373.786,291.168,373.933,292.709z"/>
						</g>
						<path style="fill:#515151;" d="M268.648,319.221c-0.097,0.009-0.193,0.014-0.287,0.014c-0.868,0.01-1.583-0.341-2.07-1.015
							l0,0c-1.749-2.414-0.057-8.738,3.852-14.395c2.881-4.169,6.121-6.799,8.464-6.8c0.867-0.01,1.583,0.341,2.069,1.014
							c1.747,2.417,0.055,8.741-3.852,14.398C274.06,316.438,270.961,318.999,268.648,319.221z M278.432,298.139
							c-1.64,0.157-4.493,2.132-7.383,6.314c-3.904,5.651-5.151,11.347-3.865,13.122l0,0c0.276,0.381,0.657,0.564,1.165,0.559
							c1.606-0.013,4.567-1.979,7.567-6.322c3.903-5.651,5.15-11.349,3.866-13.125c-0.276-0.38-0.657-0.563-1.164-0.558
							C278.558,298.129,278.496,298.132,278.432,298.139z"/>
						<g>
							<g>
								<path style="fill:#515151;" d="M289.478,300.139c-2.732-0.294-6.842,0.345-8.69-2.178c-0.524-0.715-1.644,0.088-1.118,0.806
									c2.169,2.961,6.36,2.384,9.571,2.73C290.119,301.591,290.361,300.234,289.478,300.139L289.478,300.139z"/>
							</g>
						</g>
						<g>
							<g>
								<path style="fill:#515151;" d="M272.755,326.28c-0.246-3.542-3.177-6.56-5.58-8.914c-0.635-0.621-1.507,0.446-0.877,1.063
									c2.122,2.079,4.868,4.853,5.085,7.982C271.445,327.297,272.817,327.165,272.755,326.28L272.755,326.28z"/>
							</g>
						</g>
						<path style="fill:#515151;" d="M372.618,376.278c-1.842,0.177-3.275-0.179-3.993-1.257c-0.935-1.404-0.301-3.589,1.834-6.322
							c1.982-2.535,5.045-5.245,8.625-7.629c6.633-4.416,14.813-7.414,16.904-4.273l0,0c0.935,1.403,0.301,3.589-1.835,6.321
							c-1.982,2.536-5.044,5.245-8.623,7.629C381.172,373.649,376.146,375.938,372.618,376.278z M392.1,356.667
							c-2.89,0.277-7.452,2.021-12.404,5.319c-3.484,2.321-6.456,4.946-8.368,7.391c-1.736,2.222-2.404,4.103-1.786,5.031
							c1.236,1.855,7.854,0.429,15.377-4.58c3.484-2.32,6.455-4.945,8.367-7.391c1.736-2.222,2.404-4.102,1.786-5.03l0,0
							C394.649,356.775,393.6,356.524,392.1,356.667z"/>
						<g>
							<g>
								<path style="fill:#515151;" d="M361.116,370.453c3.045,0.599,5.764,1.937,7.409,4.665c0.458,0.759,1.575-0.049,1.118-0.806
									c-1.822-3.02-4.919-4.553-8.289-5.216C360.482,368.923,360.246,370.282,361.116,370.453L361.116,370.453z"/>
							</g>
						</g>
						<g>
							<g>
								<path style="fill:#515151;" d="M391.589,347.367c-0.918,3.611,1.006,7.718,3.503,10.267
									c0.621,0.634,1.492-0.435,0.877-1.063c-2.165-2.21-3.813-5.855-3.022-8.966
									C393.165,346.744,391.806,346.512,391.589,347.367L391.589,347.367z"/>
							</g>
						</g>
						<path style="fill:#515151;" d="M338.68,425.9c-0.714,0.068-1.462,0.102-2.234,0.096c-6.128-0.041-11.598-2.401-12.454-5.374
							c-0.263-0.913-0.082-1.819,0.525-2.618c1.387-1.83,4.875-2.955,9.111-2.921c6.127,0.042,11.597,2.404,12.453,5.376
							c0.263,0.913,0.081,1.818-0.525,2.617C344.422,424.573,341.882,425.593,338.68,425.9z M331.501,416.276
							c-2.872,0.275-5.165,1.151-6.106,2.393c-0.398,0.526-0.511,1.066-0.343,1.648c0.704,2.443,5.925,4.54,11.402,4.577
							c3.832,0.024,7.06-0.949,8.224-2.483c0.399-0.526,0.511-1.065,0.343-1.647l0,0c-0.703-2.444-5.924-4.541-11.401-4.579
							C332.888,416.18,332.178,416.211,331.501,416.276z"/>
						<g>
							<g>
								<path style="fill:#515151;" d="M321.209,411.917c2.13,2.314,1.983,5.712,2.627,8.618c0.189,0.855,1.564,0.734,1.372-0.132
									c-0.696-3.142-0.573-6.786-2.881-9.293C321.734,410.466,320.607,411.264,321.209,411.917L321.209,411.917z"/>
							</g>
						</g>
						<g>
							<g>
								<path style="fill:#515151;" d="M352.348,413.57c-3.116,1.614-6.063,3.342-7.423,6.752c-0.328,0.823,0.922,1.404,1.251,0.579
									c1.224-3.069,3.861-4.592,6.663-6.043C353.617,414.455,353.137,413.161,352.348,413.57L352.348,413.57z"/>
							</g>
						</g>
						<path style="fill:#515151;" d="M282.877,384.857c-2.958,0.284-7.816-3.764-11.26-9.447c-2.627-4.333-3.679-8.358-2.745-10.504
							c0.346-0.795,0.959-1.305,1.772-1.473c2.936-0.6,7.999,3.523,11.564,9.402c2.627,4.331,3.679,8.356,2.744,10.502
							c-0.346,0.796-0.959,1.306-1.773,1.475l0,0C283.08,384.832,282.98,384.848,282.877,384.857z M271.062,364.483
							c-0.066,0.006-0.131,0.016-0.193,0.029c-0.46,0.095-0.783,0.368-0.986,0.834c-0.641,1.471-0.061,4.976,2.676,9.493
							c3.56,5.873,8.237,9.346,10.394,8.893l0,0c0.461-0.096,0.784-0.368,0.987-0.835c0.641-1.471,0.061-4.975-2.676-9.491
							C277.807,367.705,273.286,364.27,271.062,364.483z"/>
						<g>
							<g>
								<path style="fill:#515151;" d="M276.103,356.354c-1.34,2.277-2.437,6.334-5.413,6.932c-0.861,0.173-0.739,1.547,0.132,1.372
									c3.678-0.74,4.864-4.892,6.532-7.726C277.805,356.168,276.549,355.596,276.103,356.354L276.103,356.354z"/>
							</g>
						</g>
						<g>
							<g>
								<path style="fill:#515151;" d="M293.245,382.234c-3.359-1.214-7.261,0.152-10.425,1.394
									c-0.824,0.323-0.337,1.613,0.492,1.288c2.765-1.085,6.399-2.498,9.355-1.431
									C293.496,383.785,294.08,382.536,293.245,382.234L293.245,382.234z"/>
							</g>
						</g>
						<path style="fill:#515151;" d="M431.758,329.96c-2.966,0.284-7.813-4.255-11.189-10.533
							c-2.568-4.775-3.552-9.274-2.508-11.461c0.365-0.764,0.969-1.246,1.746-1.393l0,0c2.898-0.561,7.954,4.048,11.42,10.497
							c2.567,4.775,3.552,9.275,2.509,11.464c-0.365,0.764-0.968,1.246-1.745,1.394C431.914,329.941,431.837,329.953,431.758,329.96
							z M420.162,307.634c-0.051,0.005-0.1,0.013-0.149,0.022l0,0c-0.43,0.081-0.743,0.337-0.957,0.785
							c-0.736,1.541-0.253,5.374,2.484,10.464c3.467,6.449,8.124,10.343,10.245,9.938c0.43-0.081,0.742-0.338,0.956-0.785
							c0.736-1.543,0.253-5.377-2.484-10.467C426.868,311.287,422.368,307.423,420.162,307.634z"/>
						<g>
							<g>
								<path style="fill:#515151;" d="M426.155,333.81c1.31-2.129,3.348-3.361,5.799-3.74c0.873-0.135,0.747-1.508-0.132-1.372
									c-2.983,0.461-5.335,1.96-6.919,4.533C424.439,333.987,425.695,334.557,426.155,333.81L426.155,333.81z"/>
							</g>
						</g>
						<g>
							<g>
								<path style="fill:#515151;" d="M411.725,309.72c3.06,1.281,5.696-0.813,8.431-1.962c0.815-0.342,0.329-1.633-0.492-1.288
									c-2.254,0.947-4.823,3.061-7.361,1.999C411.486,308.127,410.906,309.377,411.725,309.72L411.725,309.72z"/>
							</g>
						</g>
						<g>
							<path style="fill:#515151;" d="M315.2,314.589c0.07,0.732-0.466,1.382-1.198,1.452c-0.732,0.07-1.382-0.466-1.452-1.198
								c-0.07-0.732,0.466-1.382,1.198-1.452C314.479,313.32,315.13,313.857,315.2,314.589z"/>
						</g>
						<g>
							<path style="fill:#515151;" d="M274.944,339.643c0.07,0.732-0.466,1.382-1.198,1.452c-0.732,0.07-1.382-0.466-1.452-1.198
								c-0.07-0.732,0.466-1.382,1.198-1.452C274.223,338.375,274.874,338.911,274.944,339.643z"/>
						</g>
						<g>
							<path style="fill:#515151;" d="M409.886,314.47c0.07,0.732-0.466,1.382-1.198,1.452c-0.732,0.07-1.382-0.466-1.452-1.198
								c-0.07-0.732,0.466-1.382,1.198-1.452C409.166,313.202,409.816,313.738,409.886,314.47z"/>
						</g>
						<g>
							<path style="fill:#515151;" d="M302.53,338.279c0.137,1.433-0.913,2.705-2.345,2.843c-1.433,0.137-2.705-0.913-2.843-2.345
								c-0.137-1.433,0.913-2.705,2.345-2.843C301.12,335.796,302.393,336.846,302.53,338.279z"/>
						</g>
						<g>
							<path style="fill:#515151;" d="M315.202,403.799c0.168,1.749-1.114,3.302-2.863,3.47c-1.749,0.168-3.302-1.114-3.47-2.863
								c-0.168-1.749,1.114-3.302,2.862-3.47C313.481,400.769,315.035,402.05,315.202,403.799z"/>
						</g>
						<g>
							<path style="fill:#515151;" d="M361.501,401.285c0.078,0.817-0.521,1.543-1.338,1.621s-1.543-0.521-1.621-1.338
								c-0.078-0.817,0.521-1.543,1.338-1.621C360.696,399.869,361.422,400.468,361.501,401.285z"/>
						</g>
						<g>
							<path style="fill:#515151;" d="M413.009,360.997c0.119,1.238-0.789,2.338-2.026,2.456c-1.238,0.119-2.338-0.789-2.456-2.027
								c-0.119-1.238,0.789-2.338,2.026-2.456C411.791,358.852,412.891,359.759,413.009,360.997z"/>
						</g>
						<g>
							<path style="fill:#515151;" d="M387.084,320.654c0.148,1.542-0.982,2.911-2.524,3.059c-1.542,0.148-2.911-0.982-3.059-2.524
								c-0.148-1.542,0.982-2.911,2.524-3.059C385.566,317.982,386.936,319.112,387.084,320.654z"/>
						</g>
						<g>
							<path style="fill:#515151;" d="M368.776,336.737c0.068,0.707-0.451,1.336-1.158,1.403c-0.707,0.068-1.336-0.451-1.403-1.158
								c-0.068-0.707,0.451-1.335,1.158-1.403C368.08,335.511,368.709,336.03,368.776,336.737z"/>
						</g>
						<g>
							<path style="fill:#515151;" d="M351.574,368.043c0.179,1.871-1.192,3.533-3.062,3.712c-1.871,0.179-3.533-1.192-3.712-3.062
								c-0.179-1.871,1.192-3.533,3.063-3.712S351.395,366.173,351.574,368.043z"/>
						</g>
						<g>
							<path style="fill:#515151;" d="M392.207,395.035c0.095,0.992-0.632,1.874-1.624,1.969c-0.992,0.095-1.874-0.632-1.969-1.625
								c-0.095-0.992,0.632-1.874,1.625-1.969C391.23,393.315,392.112,394.042,392.207,395.035z"/>
						</g>
					</g>
				</g>
				<path style="fill:#009ECE;" d="M316.89,217.969c0,0-15.174,12.159-21.603,21.637c-6.43,9.478-8.263,17.39-8.263,17.39
					s4.221-0.567,5.519,1.716c0.455,0.801,1.086,2.665,1.086,2.665s1.959-11.001,10.4-22.61
					c8.441-11.609,17.147-16.732,17.147-16.732s-1.227,0.351-3.159-2.005C317.015,218.809,316.89,217.969,316.89,217.969z"/>
				<path style="fill:#009ECE;" d="M387.997,232.418c0,0,3.314,7.124,7.048,22.966c3.716,15.768,3.734,15.857,3.809,20.957
					c0,0,2.847-0.658,5.25-1.581c2.404-0.923,4.577-0.439,4.577-0.439s-4.999-18.381-8.861-29.78s-7.109-14.276-7.109-14.276
					s-0.679,1.411-2.242,1.959C389.389,232.603,387.997,232.418,387.997,232.418z"/>
				<path style="fill:#FFB846;" d="M383.065,215.457c-3.716,1.769-4.875,7.096-2.589,11.898c2.286,4.802,7.151,7.262,10.867,5.493
					c3.716-1.769,4.875-7.096,2.589-11.898C391.646,216.148,386.781,213.688,383.065,215.457z"/>
				<path style="fill:#FFB846;" d="M315.298,221.009c2.132,3.52,7.548,4.141,12.097,1.386c4.55-2.755,6.51-7.842,4.378-11.362
					c-2.132-3.52-7.548-4.141-12.098-1.386C315.126,212.401,313.166,217.489,315.298,221.009z"/>
				<path style="fill:#1D5989;" d="M355.753,184.968c0,0-0.822,3.436-0.924,10.075c-0.102,6.638,1.014,10.582,1.014,10.582
					s2.278,1.722,4.81,2.588c1.763,0.603,5.495,4.602,5.495,4.602s-1.042-10.697,0.081-16.307c1.124-5.61,3.765-10.733,3.765-10.733
					s-5.562,1.344-8.588,0.644C358.38,185.718,355.753,184.968,355.753,184.968z"/>
				<g>
					<g>
						<path style="fill:#1D5989;" d="M383.362,90.485c-0.272,0.026-0.554-0.049-0.786-0.231L365.995,77.23
							c-0.336-0.263-0.489-0.696-0.394-1.112c0.094-0.415,0.42-0.739,0.835-0.832l14.039-3.119l-9.966-6.26
							c-0.352-0.221-0.55-0.622-0.511-1.036c0.038-0.414,0.307-0.771,0.693-0.923l12.537-4.938l-7.201-5.898
							c-0.303-0.249-0.452-0.641-0.39-1.029c0.062-0.388,0.328-0.713,0.694-0.853l8.677-3.329l-4.46-5.965
							c-0.186-0.25-0.259-0.567-0.198-0.873c0.061-0.306,0.247-0.572,0.515-0.732l7.332-4.395c0.525-0.314,1.199-0.143,1.513,0.379
							c0.313,0.523,0.143,1.2-0.38,1.513l-6.285,3.768l4.601,6.155c0.207,0.277,0.272,0.634,0.176,0.967
							c-0.096,0.331-0.342,0.599-0.664,0.723l-8.266,3.171l7.186,5.886c0.302,0.248,0.451,0.637,0.39,1.024
							c-0.06,0.387-0.321,0.712-0.685,0.855l-12.256,4.827l10.392,6.528c0.379,0.238,0.576,0.681,0.5,1.121
							c-0.077,0.441-0.411,0.792-0.847,0.889l-14.387,3.196l14.749,11.586c0.48,0.376,0.562,1.069,0.186,1.548
							C383.93,90.315,383.651,90.457,383.362,90.485z"/>
					</g>
					<g>
						<path style="fill:#1D5989;" d="M392.396,39.117c-2.472,0.237-4.675-1.581-4.912-4.052c-0.237-2.471,1.581-4.675,4.053-4.912
							c2.471-0.237,4.674,1.581,4.911,4.052C396.685,36.677,394.867,38.88,392.396,39.117z M391.747,32.348
							c-1.262,0.121-2.189,1.245-2.068,2.506c0.121,1.261,1.245,2.188,2.507,2.067c1.26-0.121,2.188-1.245,2.067-2.506
							C394.132,33.155,393.008,32.228,391.747,32.348z"/>
					</g>
				</g>
				<path style="fill:#0086BE;" d="M416.847,167.958c0,0-3.725,2.669-6.737,5.912c-3.012,3.243-8.116,8.62-8.116,8.62
					s-3.339-14.407,1.984-40.63c6.17-30.389,13.516-38.394,13.516-38.394s0.421,4.39,2.845,6.558c2.758,2.466,5.49,3.351,5.49,3.351
					s-5.977,12.757-7.856,29.737C416.094,160.091,416.847,167.958,416.847,167.958z"/>
				<path style="fill:#009ECE;" d="M336.529,88.89c0,0-12.555,11.543-13.989,44.725c-1.433,33.183,3.511,44.316,3.511,44.316
					s5.733,11.656,34.36,13.713c28.627,2.056,41.583-9.155,41.583-9.155s-3-21.668,3.43-47.029
					c6.43-25.361,12.07-31.994,12.07-31.994s-3.891-9.781-35.3-15.815C349.83,81.433,336.529,88.89,336.529,88.89z"/>
				<path style="fill:#0086BE;" d="M360.591,300.866l-8.802,11.697c0,0-0.688-1.413-2.637-3.441
					c-1.949-2.029-4.985-1.921-4.985-1.921l4.176-4.177c0,0,2.77-0.181,5.9-0.481C357.17,302.261,360.591,300.866,360.591,300.866z"
					/>
				<path style="fill:#0086BE;" d="M299.546,285.632c0,0,4.197-1.465,8.521-1.625c4.323-0.16,6.143,0.219,6.143,0.219
					s-0.437,2.164-0.068,4.252c0.369,2.088,1.02,2.309,1.02,2.309s-2.841,1.003-6.299,1.52c-3.459,0.517-7.507-0.296-7.507-0.296
					s0.486-0.689-0.302-3.153C300.265,286.394,299.546,285.632,299.546,285.632z"/>
				<path style="fill:#1D5989;" d="M367.932,295.053c-1.492,2.989-4.513,5.337-9.625,6.914c-8.247,2.544-24.834,2.842-34.377-2.336
					c-9.721-5.274-11.227-10.982-10.867-14.189c0.398-3.545,3.286-6.352,3.286-6.352s8.231,7.725,23.225,11.896
					c14.993,4.171,28.47,1.124,28.47,1.124S368.803,293.308,367.932,295.053z"/>
				<g>
					<path style="fill:#1D5989;" d="M312.142,131.487c-1.489,0.143-3.73,0.04-5.31-1.46c-1.29-1.225-1.763-2.266-1.782-2.31
						l1.007-0.449c0.003,0.007,0.416,0.898,1.535,1.959c2.061,1.958,5.776,0.937,5.812,0.926l0.301,1.06
						C313.638,131.232,313.021,131.402,312.142,131.487z"/>
				</g>
				<path style="fill:#FFB846;" d="M319.575,126.281c-1.659,0.587-4.501,1.418-4.501,1.418s0.025,2.694-0.311,4.091
					c-0.336,1.397-1.238,4.056-1.238,4.056s2.281,0.976,3.496,1.806c2.074,1.414,5.34,3.554,5.34,3.554s-0.006-7.283,0.678-12.195
					c0.262-1.881,0.641-4.402,0.641-4.402S322.781,125.147,319.575,126.281z"/>
				<path style="fill:#1D5989;" d="M315.769,132.06c-0.454,2.249-1.458,3.945-2.244,3.786c-0.785-0.159-1.055-2.111-0.6-4.361
					c0.455-2.25,1.458-3.946,2.245-3.786C315.955,127.857,316.223,129.809,315.769,132.06z"/>
				<path style="fill:#009ECE;" d="M306.653,269.259c0,0,6.044,12.99,28.676,21.343c22.632,8.353,41.9-1.525,41.9-1.525
					s10.925-23.073,8.225-52.849c-2.962-32.669-33.312-45.711-54.507-25.512C311.156,229.576,306.653,269.259,306.653,269.259z"/>
				<path style="fill:#0086BE;" d="M389.082,281.294c0,0-0.824,1.916-4.593,4.492c-1.737,1.188-7.605,3.457-7.605,3.457
					s4.255-7.068,7.281-23.933c3.219-17.936,1.478-34.088-2.874-43.709c-4.277-9.455-9.036-13.332-9.036-13.332
					s12.188,6.741,16.326,31.256C392.905,265.137,389.082,281.294,389.082,281.294z"/>
				<path style="fill:#009ECE;" d="M282.863,261.95c0,0-3.452-1.307-8.372,0.803c-4.921,2.109-6.396,7.976-6.396,7.976
					s1.298,1.26,2.237,3.109c0.939,1.849,1.018,2.672,1.018,2.672s2.534-3.861,4.185-5.455c3.069-2.963,5.326-2.934,5.278-1.268
					c-0.048,1.666-0.158,3.114-0.898,6.231c-0.74,3.117-1.801,4.619-1.801,4.619s2.089,0.931,3.65,1.242
					c2.578,0.514,4.679,0.829,4.679,0.829s0.861-2.26,1.184-7.552c0.244-3.98,0.367-4.435,1.134-4.37
					c0.768,0.065,2.311,2.032,2.999,4.873c0.688,2.842,0.787,7.5,0.787,7.5s2.388-1.437,4.052-2.287
					c1.976-1.008,4.158-2.906,4.158-2.906s0.141-4.306-2.364-8.773c-2.505-4.467-5.259-5.67-5.259-5.67s-2.522,2.039-5.37,1.197
					C284.917,263.88,282.863,261.95,282.863,261.95z"/>
				<path style="fill:#009ECE;" d="M398.944,280.323c0,0-6.031-0.73-9.731,4.033c-3.698,4.764-3.545,8.588-3.545,8.588
					s1.689,0.907,3.466,1.804c1.777,0.897,3.293,2.25,3.293,2.25s0.016-3.013,2.118-6.151c2.103-3.138,5.193-3.929,5.193-3.929
					s-1.628,1.593-1.813,6.149c-0.152,3.719,1.714,5.352,1.714,5.352s1.24,0.009,3.454-0.115c1.568-0.087,4.747-0.366,4.747-0.366
					s-1.629-2.729-1.362-5.858c0.361-4.232,2.942-5.12,2.942-5.12s1.76,1.354,3.255,4.507c1.824,3.846,0.351,5.973,0.351,5.973
					s1.975-0.319,4.851-2.296c1.833-1.261,2.802-2.798,2.802-2.798s-0.471-4.919-4.72-8.996c-3.829-3.675-6.395-3.368-6.395-3.368
					s-0.61,4.031-6.18,3.182C398.345,282.396,398.944,280.323,398.944,280.323z"/>
				<polygon style="fill:#009ECE;" points="294.854,290.605 255.059,331.896 257.146,353.665 300.816,293.099 				"/>
				<path style="fill:#009ECE;" d="M341.546,310.673c0,0-5.034,6.216-12.61,18.665c-7.576,12.449-15.754,29.202-15.754,29.202
					s6.444,4.643,6.428,13.137c-0.016,8.494-7.267,17.589-7.267,17.589s1.529,1.516,7.123-4.652
					c5.594-6.168,11.577-22.708,13.47-31.844s7.726-22.434,11.063-29.03c3.336-6.596,6.631-12.992,6.631-12.992L341.546,310.673z"/>
				<path style="fill:#FFB846;" d="M259.52,338.946c0.964,10.052-1.64,18.526-7.905,19.126c-5.329,0.511-10.431-7.224-11.395-17.276
					c-0.964-10.052,1.87-19.01,7.861-19.584C254.438,320.603,258.556,328.894,259.52,338.946z"/>
				<path style="fill:#1D5989;" d="M255.462,342.959c0.859,7.564-1.953,14.163-5.706,14.523c-3.565,0.342-8.187-6.292-8.818-12.871
					c-0.727-7.578,1.157-14.355,5.665-14.867C251.388,329.2,254.602,335.396,255.462,342.959z"/>
				<path style="fill:#FFB846;" d="M313.315,357.05c-3.735-0.519-8.92,2.791-12.351,8.846c-5.211,9.194-1.326,17.941,1.533,20.806
					c2.859,2.865,6.841,5.612,11.314,1.501c4.473-4.111,6.39-11.396,6.482-19.706C320.35,363.321,317.245,357.596,313.315,357.05z"
					/>
				<path style="fill:#1D5989;" d="M306.903,363.333c2.087-0.857,5.697-0.269,7.996,5.419c2.3,5.688,1.511,14.98-1.23,19.034
					c-2.741,4.054-7.932,2.955-11.926-1.679c-3.993-4.634-2.849-11.944-1.204-15.978
					C302.184,366.094,304.989,364.118,306.903,363.333z"/>
				<path style="fill:#1D5989;" d="M354.783,239.992c-2.688,5.424-8.774,7.884-13.595,5.496c-4.82-2.389-6.547-8.724-3.858-14.147
					c2.689-5.425,8.775-7.885,13.594-5.497C355.745,228.234,357.472,234.568,354.783,239.992z"/>
				<path style="fill:#FFB846;" d="M347.933,236.559c-1.109,2.238-3.622,3.254-5.612,2.269c-1.99-0.987-2.702-3.601-1.593-5.84
					c1.111-2.239,3.622-3.255,5.612-2.269C348.33,231.705,349.044,234.319,347.933,236.559z"/>
				<path style="fill:#1D5989;" d="M342.627,123.612c0.608,6.34-3.628,11.932-9.458,12.491c-5.833,0.559-11.053-4.127-11.66-10.467
					c-0.608-6.339,3.626-11.932,9.459-12.491C336.798,112.587,342.019,117.273,342.627,123.612z"/>
				<g>
					<path style="fill:#CAF4FF;" d="M339.839,124.338c0.511,5.331-3.05,10.034-7.953,10.504c-4.905,0.47-9.295-3.47-9.806-8.801
						c-0.511-5.33,3.05-10.033,7.955-10.503C334.938,115.068,339.328,119.008,339.839,124.338z"/>
				</g>
				<path style="fill:#1D5989;" d="M407.796,133.232c0.608,6.34-3.627,11.932-9.458,12.491c-5.833,0.559-11.053-4.127-11.661-10.467
					c-0.608-6.339,3.626-11.932,9.46-12.491C401.968,122.207,407.189,126.893,407.796,133.232z"/>
				<g>
					<path style="fill:#CAF4FF;" d="M405.008,133.958c0.511,5.331-3.05,10.034-7.953,10.504c-4.905,0.47-9.295-3.47-9.806-8.801
						c-0.511-5.33,3.05-10.033,7.955-10.503C400.107,124.688,404.497,128.628,405.008,133.958z"/>
				</g>
				<path style="fill:#FFB846;" d="M330.682,168.456l2.577,4.747c0,0,6.315-10.206,20.119-7.745
					c13.805,2.461,15.24,15.523,15.24,15.523l6.615-5.157c0,0,1.948-18.575-17.733-21.673
					C337.819,151.054,330.682,168.456,330.682,168.456z"/>
				<path style="fill:#1D5989;" d="M368.698,181.804c-0.134,0.013-0.272-0.007-0.401-0.061c-0.276-0.116-0.467-0.373-0.501-0.67
					c-0.057-0.508-1.554-12.481-14.563-14.8c-13.109-2.34-19.211,7.268-19.271,7.365c-0.155,0.251-0.428,0.402-0.727,0.391
					c-0.295-0.008-0.562-0.173-0.703-0.432l-2.577-4.747c-0.118-0.219-0.132-0.479-0.038-0.709
					c0.074-0.18,7.617-17.969,27.711-14.807c20.224,3.183,18.448,22.382,18.428,22.576c-0.024,0.223-0.137,0.428-0.315,0.566
					l-6.615,5.157C369.001,181.732,368.852,181.789,368.698,181.804z M347.139,164.351c1.929-0.185,4.055-0.122,6.384,0.293
					c11.515,2.053,14.803,11.307,15.65,14.857l5.265-4.104c0.161-2.558,0.369-17.683-17.067-20.427
					c-17.48-2.752-24.634,10.978-25.769,13.448l1.768,3.257C335.102,169.563,339.618,165.072,347.139,164.351z"/>
				<path style="fill:#1D5989;" d="M370.088,137.995c-0.149,2.104-3.795,3.559-8.147,3.251c-4.351-0.308-7.758-2.263-7.605-4.366
					c0.148-2.103,3.795-3.558,8.146-3.249C366.834,133.938,370.239,135.894,370.088,137.995z"/>
				<g>
					<path style="fill:#1D5989;" d="M337.618,169.212c-0.17-0.096-1.081-0.675-2.282-2.683c-1.262-2.109-1.175-4.551-1.17-4.654
						l1.652,0.068c-0.001,0.021-0.065,2.063,0.936,3.737c0.984,1.644,1.684,2.096,1.691,2.1L337.618,169.212z"/>
				</g>
				<g>
					<path style="fill:#1D5989;" d="M343.135,166.263c-0.045-0.065-1.135-1.627-2.118-3.992c-1.002-2.413-1.143-5.004-1.148-5.113
						l1.651-0.084c0.001,0.024,0.135,2.421,1.024,4.562c0.908,2.187,1.935,3.661,1.945,3.675L343.135,166.263z"/>
				</g>
				<g>
					<path style="fill:#1D5989;" d="M347.892,165.624c-0.043-0.112-1.076-2.773-1.332-5.419c-0.37-3.83,1.033-6.378,1.092-6.485
						l1.444,0.808c-0.012,0.022-1.207,2.232-0.889,5.519c0.234,2.42,1.217,4.95,1.227,4.975L347.892,165.624z"/>
				</g>
				<g>
					<path style="fill:#1D5989;" d="M353.066,165.652c-0.009-0.088-0.242-2.179-0.012-5.609c0.238-3.532,1.76-6.401,1.824-6.522
						l1.457,0.782c-0.014,0.027-1.418,2.687-1.631,5.851c-0.22,3.266,0.003,5.29,0.005,5.31L353.066,165.652z"/>
				</g>
				<g>
					<path style="fill:#1D5989;" d="M360.115,167.605l-1.63-0.284c0.005-0.027,0.487-2.774,1.275-6.067
						c0.821-3.437,2.733-5.963,2.814-6.069l1.314,1.004c-0.017,0.023-1.782,2.366-2.52,5.45
						C360.591,164.882,360.119,167.578,360.115,167.605z"/>
				</g>
				<g>
					<path style="fill:#1D5989;" d="M365.328,171.944l-1.614-0.362c0.022-0.096,0.547-2.388,1.977-5.18
						c1.436-2.801,4.282-5.863,4.402-5.993l1.209,1.129c-0.029,0.03-2.81,3.026-4.14,5.619
						C365.827,169.764,365.333,171.923,365.328,171.944z"/>
				</g>
				<g>
					<path style="fill:#1D5989;" d="M368.092,176.899l-1.474-0.751c0.061-0.119,1.503-2.925,3.365-4.476
						c1.812-1.511,4.341-2.714,4.449-2.765l0.707,1.495c-0.025,0.012-2.45,1.166-4.097,2.539
						C369.439,174.279,368.105,176.873,368.092,176.899z"/>
				</g>
				<g>
					<path style="fill:#1D5989;" d="M427.598,150.357c-0.387,0.037-0.792,0.032-1.212-0.029c-2.247-0.329-4.153-2.289-4.232-2.373
						l0.794-0.764c0.017,0.017,1.729,1.773,3.597,2.045c2.545,0.374,4.516-1.951,4.536-1.974l0.849,0.705
						C431.847,148.067,430.118,150.116,427.598,150.357z"/>
				</g>
				<g>
					<path style="fill:#1D5989;" d="M329.136,234.435c-0.792,0.076-1.544-0.261-2.108-0.987c-1.647-2.121-1.607-5.028,0.107-7.588
						c0.382-0.571,0.87-1.14,1.451-1.658c-2.592-2.348-6.379-3.645-9.549-2.961c-0.411,0.089-0.798,0.209-1.161,0.36
						c0.988,1.385,1.692,2.971,2.133,4.782c0.727,2.977,0.202,5.524-1.405,6.815c-0.954,0.766-2.143,0.918-3.181,0.409
						c-1.564-0.769-2.43-2.782-2.377-5.525c0.06-3.094,1.183-5.463,3.163-6.824c-1.504-1.688-3.571-3.007-6.303-4.06
						c-4-1.543-8.035-1.156-10.085-0.786l-0.195-1.086c2.161-0.388,6.425-0.797,10.676,0.843c2.966,1.144,5.231,2.631,6.871,4.538
						c0.503-0.235,1.047-0.417,1.63-0.543c3.54-0.763,7.788,0.709,10.649,3.357c1.773-1.227,4.169-1.924,6.963-1.152
						c7.169,1.981,6.952,8.105,6.948,8.167l-1.101-0.053c0.009-0.216,0.156-5.312-6.141-7.052c-2.338-0.644-4.357-0.106-5.88,0.888
						c0.674,0.751,1.24,1.576,1.658,2.454c1.425,2.995,0.289,6.093-1.58,7.244C329.927,234.259,329.526,234.398,329.136,234.435z
						 M329.368,224.982c-0.529,0.464-0.972,0.976-1.316,1.491c-1.441,2.152-1.499,4.565-0.153,6.299
						c0.626,0.806,1.349,0.612,1.843,0.307c1.276-0.786,2.391-3.25,1.163-5.832C330.518,226.434,329.994,225.673,329.368,224.982z
						 M316.903,222.117c-1.739,1.152-2.7,3.208-2.754,5.985c-0.044,2.263,0.614,3.951,1.76,4.513
						c0.655,0.322,1.384,0.219,2.005-0.278c0.976-0.784,1.757-2.691,1.024-5.694C318.515,224.91,317.849,223.414,316.903,222.117z"
						/>
				</g>
				<path style="fill:#1D5989;" d="M300.145,216.641c-0.687,3.339-3.38,5.607-6.014,5.065c-2.634-0.542-4.212-3.688-3.525-7.027
					c0.687-3.339,3.38-5.607,6.013-5.066C299.254,210.155,300.832,213.302,300.145,216.641z"/>
				<path style="fill:#FFB846;" d="M297.668,216.865c0.029,2.135-1.313,3.882-2.995,3.905c-1.683,0.022-3.071-1.689-3.1-3.822
					c-0.028-2.133,1.313-3.881,2.997-3.904C296.253,213.022,297.64,214.734,297.668,216.865z"/>
				<g>
					<polygon style="fill:#FFB846;" points="327.175,54.122 330.738,53.889 329.752,56.763 					"/>
					<path style="fill:#009ECE;" d="M330.001,58.633c0,0-3.808,1.125-3.636,6.325c0.173,5.2,4.349,8.603,13.988,7.135
						c9.64-1.467,12.251-11.172,12.251-11.172s-1.865,1.407-6.224,1.499c-3.936,0.083-8.613-0.792-7.142-1.956
						c1.609-1.274,2.26-4.162,0.52-6.579c-2.131-2.96-7.299-2.443-9.02,0.004c-0.715,1.017-0.95,2.039-0.987,2.874
						C329.704,57.861,330.001,58.633,330.001,58.633z"/>
					<path style="fill:#1D5989;" d="M333.951,65.861c0,0,1.046-4.064,6.07-2.429c7.291,2.37,10.827-0.415,10.827-0.415
						s-2.939,5.509-9.013,6.871C334.211,71.596,333.52,67.032,333.951,65.861z"/>
					<g>
						<path style="fill:#1D5989;" d="M333.155,54.495c0.748-0.793,2.344-0.233,1.829,0.951c-0.212,0.488,0.538,0.836,0.751,0.347
							c0.9-2.071-1.831-3.295-3.218-1.825C332.151,54.356,332.791,54.881,333.155,54.495L333.155,54.495z"/>
					</g>
				</g>
				<g>
					<polygon style="fill:#FFB846;" points="460.306,113.93 462.77,114.874 461.221,116.499 					"/>
					<path style="fill:#009ECE;" d="M460.811,117.832c0,0-2.904-0.42-4.394,3.124c-1.489,3.544,0.264,7.119,7.189,9.108
						c6.926,1.99,11.674-3.72,11.674-3.72s-1.687,0.369-4.642-0.915c-2.668-1.159-5.538-3.19-4.191-3.518
						c1.473-0.359,2.802-2.097,2.38-4.257c-0.517-2.645-4.147-3.893-6.058-2.781c-0.794,0.462-1.267,1.076-1.55,1.625
						C460.85,117.222,460.811,117.832,460.811,117.832z"/>
					<path style="fill:#1D5989;" d="M461.232,123.904c0,0,1.956-2.406,4.826,0.243c4.164,3.842,7.398,3.063,7.398,3.063
						s-3.674,2.792-8.172,1.831C459.636,127.835,460.581,124.557,461.232,123.904z"/>
					<g>
						<path style="fill:#1D5989;" d="M464.206,116.027c0.747-0.302,1.645,0.567,0.935,1.203c-0.293,0.262,0.103,0.728,0.397,0.465
							c1.244-1.113-0.212-2.778-1.597-2.218C463.575,115.624,463.842,116.173,464.206,116.027L464.206,116.027z"/>
					</g>
				</g>
				<g>
					<polygon style="fill:#FFB846;" points="430.769,70.533 427.971,70.887 429.167,72.967 					"/>
					<path style="fill:#009ECE;" d="M429.254,74.456c0,0,3.122,0.301,3.769,4.359c0.646,4.058-2.081,7.324-9.776,7.632
						c-7.696,0.309-11.177-6.825-11.177-6.825s1.658,0.811,5.052,0.228c3.065-0.526,6.56-1.907,5.245-2.589
						c-1.438-0.746-2.377-2.888-1.391-5.024c1.209-2.615,5.293-2.99,6.995-1.35c0.707,0.681,1.043,1.439,1.197,2.08
						C429.369,73.812,429.254,74.456,429.254,74.456z"/>
					<path style="fill:#1D5989;" d="M427.276,80.653c0,0-1.421-2.994-5.072-0.973c-5.298,2.932-8.458,1.303-8.458,1.303
						s3.106,3.831,8.02,3.976C427.935,85.139,427.786,81.496,427.276,80.653z"/>
					<g>
						<path style="fill:#1D5989;" d="M426.188,71.72c-0.699-0.503-1.852,0.171-1.276,1.012c0.238,0.347-0.292,0.729-0.53,0.382
							c-1.009-1.471,0.926-2.83,2.221-1.898C426.945,71.462,426.528,71.964,426.188,71.72L426.188,71.72z"/>
					</g>
				</g>
				<g>
					<polygon style="fill:#FFB846;" points="274.332,87.549 276.338,87.418 275.783,89.035 					"/>
					<path style="fill:#009ECE;" d="M275.923,90.088c0,0-2.143,0.633-2.046,3.559c0.097,2.926,2.447,4.841,7.872,4.015
						c5.425-0.826,6.895-6.287,6.895-6.287s-1.05,0.792-3.503,0.844c-2.215,0.047-4.847-0.446-4.019-1.101
						c0.905-0.717,1.272-2.342,0.293-3.702c-1.199-1.666-4.108-1.375-5.076,0.002c-0.402,0.572-0.535,1.148-0.555,1.617
						C275.756,89.653,275.923,90.088,275.923,90.088z"/>
					<path style="fill:#1D5989;" d="M278.146,94.155c0,0,0.589-2.287,3.416-1.367c4.103,1.334,6.093-0.234,6.093-0.234
						s-1.654,3.1-5.072,3.867C278.292,97.382,277.903,94.814,278.146,94.155z"/>
					<g>
						<path style="fill:#1D5989;" d="M277.698,87.758c0.421-0.446,1.319-0.131,1.029,0.535c-0.119,0.275,0.303,0.47,0.422,0.195
							c0.507-1.166-1.03-1.854-1.811-1.027C277.133,87.681,277.493,87.976,277.698,87.758L277.698,87.758z"/>
					</g>
				</g>
				<g>
					<path style="fill:#FFB846;" d="M278.124,75.964c-0.083-0.038-0.159-0.104-0.23-0.197l-0.664-0.868
						c-0.188-0.245-0.65-0.459-0.958-0.444l-1.092,0.055c-0.257,0.013-0.442-0.09-0.491-0.268c-0.025-0.087-0.025-0.232,0.105-0.422
						l0.62-0.899c0.184-0.266,0.241-0.747,0.127-1.049l-0.389-1.02c-0.108-0.28-0.02-0.433,0.042-0.5
						c0.062-0.067,0.209-0.165,0.494-0.08l1.048,0.312c0.311,0.093,0.784-0.001,1.035-0.204l0.852-0.685
						c0.232-0.188,0.406-0.151,0.488-0.113c0.083,0.038,0.221,0.146,0.229,0.445l0.028,1.093c0.007,0.323,0.244,0.746,0.514,0.922
						l0.916,0.598c0.249,0.163,0.269,0.339,0.259,0.429c-0.011,0.09-0.072,0.256-0.353,0.356l-1.031,0.363
						c-0.306,0.108-0.634,0.463-0.719,0.774l-0.285,1.054c-0.06,0.224-0.171,0.316-0.253,0.355
						C278.325,76.012,278.224,76.01,278.124,75.964z"/>
					<path style="fill:#FFB846;" d="M459.987,148.325c-0.089,0.017-0.19,0.008-0.301-0.026l-1.044-0.321
						c-0.295-0.091-0.795,0.003-1.037,0.194l-0.858,0.678c-0.201,0.16-0.412,0.183-0.555,0.067c-0.07-0.057-0.155-0.174-0.159-0.405
						l-0.017-1.092c-0.004-0.324-0.237-0.748-0.506-0.928l-0.908-0.605c-0.25-0.165-0.267-0.341-0.257-0.431
						c0.012-0.09,0.075-0.255,0.357-0.352l1.034-0.354c0.307-0.105,0.639-0.456,0.725-0.767l0.296-1.052
						c0.08-0.288,0.244-0.359,0.332-0.376c0.089-0.017,0.264-0.009,0.444,0.23l0.657,0.873c0.193,0.259,0.631,0.466,0.953,0.453
						l1.092-0.045c0.298-0.012,0.416,0.12,0.459,0.199c0.043,0.08,0.091,0.25-0.081,0.495l-0.628,0.894
						c-0.187,0.265-0.248,0.745-0.136,1.048l0.379,1.024c0.081,0.217,0.045,0.357,0.001,0.436
						C460.178,148.248,460.096,148.304,459.987,148.325z"/>
					<path style="fill:#FFB846;" d="M399.031,81.349c-0.119,0.023-0.253,0.011-0.402-0.036l-1.396-0.429
						c-0.395-0.121-1.062,0.004-1.387,0.259l-1.146,0.907c-0.268,0.214-0.55,0.245-0.741,0.089
						c-0.095-0.075-0.207-0.233-0.213-0.541l-0.023-1.46c-0.005-0.433-0.317-1-0.675-1.24l-1.215-0.809
						c-0.335-0.221-0.357-0.456-0.343-0.577c0.017-0.12,0.1-0.341,0.477-0.47l1.381-0.474c0.411-0.14,0.853-0.609,0.969-1.025
						l0.395-1.407c0.106-0.384,0.326-0.479,0.444-0.502c0.119-0.022,0.353-0.011,0.593,0.308l0.878,1.167
						c0.259,0.347,0.844,0.623,1.274,0.606l1.461-0.061c0.399-0.016,0.556,0.16,0.614,0.266c0.058,0.107,0.122,0.335-0.109,0.661
						l-0.839,1.195c-0.249,0.354-0.332,0.996-0.183,1.4l0.508,1.368c0.108,0.29,0.06,0.477,0.001,0.582
						C399.286,81.246,399.177,81.322,399.031,81.349z"/>
					<path style="fill:#FFB846;" d="M295.095,146.464c-0.094-0.009-0.191-0.047-0.292-0.115l-0.95-0.626
						c-0.268-0.177-0.794-0.229-1.093-0.11l-1.055,0.427c-0.248,0.101-0.466,0.063-0.574-0.096
						c-0.055-0.077-0.104-0.219-0.041-0.451l0.303-1.097c0.091-0.325-0.018-0.817-0.233-1.075l-0.73-0.871
						c-0.202-0.238-0.168-0.419-0.131-0.506c0.039-0.086,0.15-0.233,0.46-0.246l1.136-0.051c0.338-0.015,0.771-0.268,0.95-0.554
						l0.604-0.965c0.163-0.263,0.348-0.287,0.442-0.278c0.093,0.009,0.266,0.068,0.375,0.359l0.401,1.065
						c0.118,0.316,0.495,0.65,0.82,0.732l1.105,0.275c0.302,0.075,0.382,0.241,0.402,0.333c0.02,0.092,0.017,0.277-0.227,0.47
						l-0.889,0.709c-0.264,0.21-0.467,0.672-0.444,1.007l0.081,1.134c0.017,0.241-0.06,0.37-0.127,0.436
						C295.308,146.443,295.21,146.476,295.095,146.464z"/>
					<path style="fill:#FFB846;" d="M411.406,114.073c-0.079-0.05-0.15-0.128-0.21-0.234l-0.567-0.986
						c-0.16-0.279-0.607-0.562-0.926-0.591l-1.135-0.092c-0.267-0.021-0.444-0.153-0.469-0.343
						c-0.014-0.094,0.005-0.243,0.166-0.422l0.763-0.843c0.227-0.249,0.351-0.737,0.276-1.065l-0.261-1.106
						c-0.073-0.304,0.038-0.45,0.111-0.511c0.073-0.059,0.237-0.141,0.521-0.013l1.039,0.465c0.309,0.139,0.81,0.107,1.097-0.068
						l0.973-0.591c0.265-0.162,0.44-0.1,0.52-0.049c0.079,0.049,0.207,0.181,0.174,0.49l-0.121,1.132
						c-0.037,0.335,0.15,0.803,0.403,1.022l0.863,0.743c0.237,0.203,0.234,0.387,0.209,0.479c-0.024,0.091-0.109,0.255-0.413,0.318
						l-1.113,0.234c-0.331,0.069-0.719,0.39-0.85,0.7l-0.437,1.049c-0.094,0.223-0.22,0.304-0.31,0.332
						C411.606,114.15,411.503,114.136,411.406,114.073z"/>
					<path style="fill:#FFB846;" d="M466.581,95.767c-0.079,0.003-0.164-0.017-0.257-0.061l-0.863-0.41
						c-0.245-0.116-0.689-0.097-0.923,0.036l-0.828,0.48c-0.195,0.113-0.381,0.107-0.489-0.013c-0.054-0.058-0.112-0.17-0.086-0.371
						l0.122-0.947c0.038-0.281-0.11-0.677-0.32-0.867l-0.709-0.64c-0.196-0.174-0.189-0.329-0.168-0.406
						c0.022-0.076,0.097-0.21,0.354-0.258l0.94-0.177c0.279-0.052,0.609-0.313,0.724-0.572l0.39-0.875
						c0.104-0.238,0.256-0.279,0.334-0.282c0.078-0.004,0.231,0.025,0.354,0.255l0.459,0.84c0.135,0.249,0.489,0.483,0.768,0.512
						l0.952,0.1c0.26,0.027,0.346,0.156,0.373,0.231c0.029,0.074,0.048,0.227-0.133,0.417l-0.657,0.695
						c-0.194,0.206-0.309,0.614-0.251,0.891l0.2,0.934c0.042,0.199-0.007,0.315-0.055,0.377
						C466.756,95.725,466.677,95.764,466.581,95.767z"/>
					<path style="fill:#FFB846;" d="M323.748,104.064c-0.069-0.038-0.131-0.099-0.188-0.185l-0.527-0.798
						c-0.149-0.226-0.539-0.44-0.808-0.447l-0.957-0.019c-0.225-0.004-0.381-0.106-0.411-0.264
						c-0.016-0.078-0.009-0.204,0.118-0.362l0.596-0.747c0.178-0.22,0.256-0.637,0.175-0.908l-0.275-0.915
						c-0.078-0.251,0.008-0.379,0.067-0.434c0.059-0.053,0.192-0.13,0.437-0.038l0.895,0.336c0.266,0.1,0.684,0.048,0.916-0.114
						l0.786-0.546c0.213-0.15,0.364-0.107,0.433-0.069c0.069,0.037,0.184,0.141,0.171,0.401l-0.042,0.957
						c-0.013,0.283,0.168,0.666,0.392,0.836l0.763,0.578c0.209,0.158,0.215,0.312,0.199,0.391c-0.013,0.079-0.076,0.219-0.329,0.288
						l-0.921,0.254c-0.274,0.076-0.583,0.365-0.676,0.632l-0.314,0.903c-0.067,0.192-0.168,0.266-0.242,0.294
						C323.921,104.118,323.833,104.111,323.748,104.064z"/>
				</g>
				<path style="fill:#ECD634;" d="M398.729,163.214c-0.069-0.038-0.131-0.099-0.188-0.185l-0.526-0.798
					c-0.149-0.226-0.539-0.44-0.808-0.447l-0.957-0.019c-0.225-0.004-0.381-0.106-0.412-0.264c-0.016-0.078-0.009-0.204,0.118-0.362
					l0.596-0.747c0.178-0.221,0.256-0.637,0.175-0.908l-0.275-0.915c-0.078-0.25,0.008-0.379,0.067-0.434
					c0.059-0.053,0.192-0.13,0.437-0.037l0.895,0.335c0.266,0.1,0.684,0.048,0.916-0.114l0.786-0.546
					c0.213-0.15,0.364-0.107,0.433-0.068c0.07,0.037,0.184,0.141,0.171,0.401l-0.042,0.957c-0.013,0.283,0.168,0.666,0.392,0.837
					l0.763,0.578c0.209,0.158,0.215,0.312,0.199,0.39c-0.013,0.079-0.076,0.219-0.329,0.288l-0.921,0.254
					c-0.274,0.076-0.583,0.365-0.676,0.632l-0.314,0.903c-0.067,0.192-0.168,0.266-0.242,0.294
					C398.902,163.269,398.813,163.262,398.729,163.214z"/>
				<path style="fill:#FFB846;" d="M423.648,143.006l-7.686-7.144c-0.185-0.29-0.404-0.498-0.655-0.609l-0.154-0.144l-0.017,0.079
					c-0.008-0.002-0.015-0.006-0.022-0.008c-1.559-0.354-3.61,2.833-4.581,7.117c-0.971,4.284-0.494,8.044,1.064,8.398
					c0.008,0.002,0.016,0.001,0.023,0.002l-0.001,0.005l0.097,0.003c0.074,0.008,0.148,0.014,0.224,0.007l9.429,0.259
					L423.648,143.006z"/>
				<path style="fill:#1D5989;" d="M421.055,146.583c-0.624,2.197-0.484,4.162,0.311,4.387c0.794,0.226,1.945-1.372,2.57-3.568
					c0.623-2.197,0.484-4.162-0.311-4.388C422.831,142.789,421.68,144.387,421.055,146.583z"/>
				<g>
					<path style="fill:#515151;" d="M424.382,116.86c-0.137,0.356-0.283,0.744-0.433,1.15c2.15-0.286,4.203-0.594,6.153-0.924
						c-0.42-0.318-0.86-0.64-1.303-0.962C427.39,116.382,425.915,116.627,424.382,116.86z"/>
					<path style="fill:#515151;" d="M398.662,91.863c1.161,0.392,2.249,0.785,3.275,1.18c27.654,2.757,46.932,8.338,46.411,14.282
						c-0.111,1.269-1.132,2.474-2.921,3.601c0.68,0.542,1.278,1.079,1.766,1.606c3.404-1.542,5.355-3.256,5.516-5.096
						C453.29,100.798,430.545,94.583,398.662,91.863z"/>
					<path style="fill:#515151;" d="M431.42,116.861c5.241-0.936,9.672-2.034,13.117-3.264c-0.285-0.509-0.673-1.028-1.172-1.557
						c-3.142,1.459-7.676,2.755-13.291,3.845C430.537,116.213,430.98,116.538,431.42,116.861z"/>
					<g>
						<path style="fill:#515151;" d="M437.977,122.339c-0.512,0.092-1.038,0.181-1.582,0.263c3.621,3.867,4.707,7.081,2.612,9.196
							c-2.597,2.623-9.679,3.158-19.542,1.933c-0.058,0.284-0.115,0.571-0.173,0.859c11.294,1.601,19.444,1.158,22.317-1.744
							C443.956,130.477,442.474,126.783,437.977,122.339z"/>
						<path style="fill:#515151;" d="M425.829,113.376c0,0-0.084,0.182-0.233,0.518c1.127,0.754,2.196,1.498,3.204,2.229
							c0.443,0.323,0.883,0.644,1.303,0.962c1.956,1.479,3.64,2.903,5.049,4.259c0.499-0.094,0.99-0.192,1.456-0.296
							c-1.481-1.34-3.221-2.742-5.187-4.187c-0.44-0.323-0.883-0.648-1.346-0.976c-3.021-2.141-6.526-4.37-10.457-6.646
							c0.219,0.282,0.457,0.549,0.722,0.786C423.097,112.491,425.829,113.376,425.829,113.376z"/>
					</g>
					<path style="fill:#515151;" d="M344.516,86.406c1.027-0.202,2.165-0.392,3.403-0.56c-16.057-1.386-29.862-1.372-39.179,0.02
						c0.298,0.423,0.642,0.857,1.014,1.3C317.718,85.644,329.973,85.382,344.516,86.406z"/>
					<path style="fill:#515151;" d="M326.454,108.429c-10.101-3.239-17.855-6.647-22.306-9.842
						c-0.663,0.294-1.279,0.594-1.826,0.901c5.216,3.238,13.475,6.634,23.876,9.846
						C326.283,109.032,326.367,108.724,326.454,108.429z"/>
					<path style="fill:#515151;" d="M300.186,91.765c0.864-1.85,3.661-3.273,7.971-4.266c-0.425-0.455-0.823-0.904-1.18-1.341
						c-5.804,1.045-9.567,2.695-10.618,4.946c-0.975,2.087,0.495,4.481,3.928,7.005c0.672-0.292,1.389-0.579,2.167-0.859
						C300.252,95.284,299.412,93.422,300.186,91.765z"/>
					<g>
						<path style="fill:#515151;" d="M406.477,131.454c-0.066-0.015-0.13-0.028-0.197-0.042c-0.06,0.232-0.119,0.464-0.178,0.7
							c0.062,0.014,0.125,0.028,0.187,0.042c4.665,1.055,9.028,1.873,13.003,2.437c0.058-0.288,0.115-0.575,0.173-0.859
							C415.541,133.245,411.178,132.48,406.477,131.454z"/>
						<path style="fill:#515151;" d="M410.476,118.462c-0.063,0.006-0.127,0.01-0.191,0.015c-0.117,0.316-0.233,0.636-0.351,0.963
							c0.068-0.005,0.139-0.009,0.206-0.014c4.934-0.373,9.551-0.851,13.81-1.416c0.149-0.406,0.296-0.794,0.433-1.15
							C420.165,117.499,415.504,118.038,410.476,118.462z"/>
						<path style="fill:#515151;" d="M409.1,122.551c-0.078-0.003-0.156-0.006-0.234-0.008c-0.096,0.289-0.19,0.58-0.285,0.875
							c0.079,0.004,0.16,0.008,0.239,0.012c4.721,0.216,9.154,0.29,13.226,0.221c0.109-0.358,0.219-0.707,0.328-1.049
							C418.348,122.745,413.893,122.728,409.1,122.551z"/>
					</g>
					<path style="fill:#515151;" d="M362.418,85.264c0.79,0.032,1.6,0.073,2.431,0.125c-29.195-9.567-53.894-12.963-59.38-7.422
						c-1.925,1.944-1.27,4.781,1.509,8.192c0.357,0.437,0.754,0.885,1.18,1.341c1.868,2,4.396,4.17,7.501,6.453
						c0.44,0.324,0.883,0.648,1.347,0.976c3.308,2.343,7.202,4.794,11.591,7.295c0.094-0.236,0.188-0.476,0.282-0.705
						c-4.029-2.347-7.584-4.64-10.598-6.83c-0.444-0.322-0.885-0.644-1.305-0.962c-3.099-2.344-5.53-4.553-7.221-6.563
						c-0.372-0.443-0.716-0.877-1.014-1.3c-1.994-2.823-2.325-5.18-0.67-6.851C313.174,73.863,335.556,76.747,362.418,85.264z"/>
					<path style="fill:#515151;" d="M360.655,116.848c-1.024-0.192-2.039-0.387-3.047-0.585c1.184,0.493,2.381,0.985,3.592,1.473
						c1.004,0.186,2.018,0.367,3.036,0.547c-0.825-0.325-1.65-0.649-2.477-0.983C361.387,117.15,361.025,116.999,360.655,116.848z"
						/>
					<path style="fill:#515151;" d="M447.193,112.531c-0.488-0.527-1.085-1.064-1.766-1.606c-5.9-4.698-18.894-9.904-36.092-14.477
						c1.01,0.564,1.898,1.112,2.68,1.639c15.79,4.516,27.198,9.544,31.351,13.953c0.499,0.529,0.887,1.048,1.172,1.557
						c0.615,1.1,0.731,2.151,0.274,3.129c-0.88,1.884-3.758,3.326-8.204,4.322c-0.466,0.104-0.956,0.202-1.456,0.296
						c-3.495,0.661-7.813,1.079-12.778,1.257c-0.109,0.342-0.218,0.692-0.328,1.049c5.501-0.093,10.345-0.442,14.349-1.049
						c0.544-0.082,1.07-0.171,1.582-0.263c5.827-1.045,9.604-2.698,10.658-4.953C449.329,115.901,448.794,114.262,447.193,112.531z"
						/>
					<g>
						<path style="fill:#515151;" d="M316.976,93.728c0.42,0.317,0.861,0.639,1.305,0.962c4.488-0.822,9.619-1.517,15.262-2.062
							c0.251-0.373,0.488-0.708,0.715-1.022C327.89,92.147,322.081,92.864,316.976,93.728z"/>
						<path style="fill:#515151;" d="M298.73,103.491c0.124-1.422,1.381-2.763,3.592-4.003c0.547-0.307,1.163-0.607,1.826-0.901
							c3.121-1.383,7.486-2.617,12.858-3.659c-0.464-0.328-0.907-0.652-1.347-0.976c-5.287,0.944-9.747,2.054-13.204,3.298
							c-0.778,0.28-1.495,0.567-2.167,0.859c-3.648,1.587-5.752,3.361-5.919,5.27c-0.421,4.822,11.473,9.419,30.23,12.617
							c0.069-0.341,0.135-0.69,0.205-1.023C308.524,111.977,298.352,107.83,298.73,103.491z"/>
					</g>
					<g>
						<g>
							<path style="fill:#515151;" d="M360.655,116.848c-12.279-5.002-23.115-10.284-31.777-15.329
								c-0.094,0.229-0.188,0.469-0.282,0.705c8.132,4.633,17.969,9.435,29.012,14.039
								C358.616,116.461,359.631,116.656,360.655,116.848z"/>
							<path style="fill:#515151;" d="M364.236,118.283c-1.018-0.18-2.031-0.361-3.036-0.547c0.03,0.012,0.06,0.025,0.09,0.037
								c1.176,0.474,2.351,0.94,3.523,1.398c0.63,0.028,1.268,0.051,1.902,0.076C365.89,118.929,365.063,118.609,364.236,118.283z"
								/>
							<path style="fill:#515151;" d="M369.102,120.156c-0.635-0.021-1.267-0.043-1.897-0.067
								c13.863,5.292,27.295,9.387,38.898,12.023c0.06-0.236,0.119-0.467,0.178-0.7
								C395.261,128.994,382.414,125.155,369.102,120.156z"/>
						</g>
						<g>
							<path style="fill:#515151;" d="M326.454,108.429c-0.087,0.294-0.171,0.603-0.256,0.905
								c9.956,3.074,21.874,5.975,35.003,8.402c-1.211-0.489-2.408-0.98-3.592-1.473
								C345.876,113.953,335.273,111.257,326.454,108.429z"/>
							<path style="fill:#515151;" d="M370.801,119.388c0.503,0.015,1.003,0.033,1.509,0.046c1.502,0.038,2.991,0.066,4.473,0.087
								c-3.494-0.501-7.046-1.058-10.637-1.678c-1.856-0.32-3.681-0.654-5.49-0.995c0.369,0.151,0.732,0.302,1.103,0.452
								c0.827,0.333,1.652,0.658,2.477,0.983c0.525,0.092,1.043,0.188,1.571,0.279C367.482,118.851,369.144,119.123,370.801,119.388
								z"/>
							<path style="fill:#515151;" d="M383.259,120.387c-2.026,0.001-4.073-0.012-6.142-0.042
								c11.259,1.609,21.939,2.629,31.463,3.073c0.095-0.295,0.189-0.587,0.285-0.875
								C401.086,122.248,392.427,121.531,383.259,120.387z"/>
						</g>
						<g>
							<path style="fill:#515151;" d="M377.118,120.345c-2.087-0.298-4.195-0.619-6.317-0.957c-1.372-0.041-2.734-0.087-4.085-0.141
								c0.796,0.307,1.592,0.611,2.386,0.909c1.042,0.034,2.085,0.068,3.136,0.095C373.878,120.293,375.502,120.322,377.118,120.345
								z"/>
							<path style="fill:#515151;" d="M364.813,119.171c-15.216-0.675-29.007-2.173-40.01-4.198
								c-0.07,0.333-0.136,0.682-0.205,1.023c11.9,2.028,26.562,3.492,42.606,4.092
								C366.408,119.785,365.612,119.483,364.813,119.171z"/>
							<path style="fill:#515151;" d="M410.285,118.477c-9.983,0.835-21.375,1.22-33.502,1.043c2.185,0.313,4.343,0.6,6.477,0.866
								c9.506-0.004,18.504-0.335,26.674-0.947C410.051,119.114,410.168,118.794,410.285,118.477z"/>
							<path style="fill:#515151;" d="M366.716,119.247c-0.634-0.025-1.272-0.048-1.902-0.076c0.799,0.312,1.595,0.614,2.391,0.918
								c0.631,0.024,1.263,0.046,1.897,0.067C368.308,119.857,367.512,119.553,366.716,119.247z"/>
							<path style="fill:#515151;" d="M372.31,119.433c-0.506-0.013-1.006-0.031-1.509-0.046c2.122,0.338,4.23,0.659,6.317,0.957
								c2.069,0.029,4.116,0.043,6.142,0.042c-2.134-0.266-4.292-0.553-6.477-0.866C375.301,119.499,373.812,119.472,372.31,119.433
								z"/>
						</g>
					</g>
				</g>
				<path style="fill:#1D5989;" d="M336.91,121.134c-0.355-0.495-1.044-0.609-1.539-0.253l-4.002,2.872l-2.177-4.419
					c-0.269-0.546-0.932-0.77-1.477-0.501c-0.546,0.269-0.771,0.93-0.502,1.476l2.339,4.747l-4.3,3.086
					c-0.494,0.355-0.608,1.044-0.253,1.539c0.237,0.331,0.624,0.491,1.002,0.454c0.187-0.018,0.373-0.084,0.537-0.202l4.002-2.872
					l2.177,4.419c0.208,0.423,0.652,0.653,1.094,0.611c0.129-0.012,0.259-0.048,0.382-0.109c0.546-0.269,0.771-0.93,0.502-1.477
					l-2.339-4.747l4.3-3.086C337.152,122.318,337.266,121.629,336.91,121.134z"/>
				<g>
					<path style="fill:#1D5989;" d="M399.66,140.465l-5.504-11.172c-0.27-0.546-0.928-0.77-1.477-0.501
						c-0.546,0.269-0.771,0.93-0.502,1.477l5.504,11.171c0.209,0.422,0.652,0.653,1.095,0.611c0.13-0.012,0.258-0.048,0.382-0.109
						C399.705,141.672,399.929,141.011,399.66,140.465z"/>
					<path style="fill:#1D5989;" d="M401.874,131.093c-0.356-0.495-1.045-0.61-1.539-0.253l-10.119,7.261
						c-0.495,0.355-0.608,1.044-0.253,1.539c0.237,0.331,0.624,0.491,1.002,0.455c0.188-0.018,0.373-0.084,0.537-0.202l10.119-7.261
						C402.116,132.277,402.23,131.588,401.874,131.093z"/>
				</g>
				<path style="fill:#FFB846;" d="M306.176,123.277c-0.887-0.217-2.112,1.673-2.735,4.221c-0.623,2.548-0.409,4.79,0.478,5.007
					c0.887,0.217,2.112-1.673,2.735-4.221C307.277,125.736,307.063,123.494,306.176,123.277z"/>
				<path style="fill:#FFB846;" d="M431.38,142.359c-0.892,0.198-1.152,2.435-0.582,4.996c0.57,2.561,1.755,4.476,2.646,4.277
					c0.892-0.198,1.152-2.435,0.582-4.996C433.456,144.076,432.271,142.161,431.38,142.359z"/>
				<path style="fill:#FFB846;" d="M411.064,277.639c0.276,2.882-2.663,5.522-6.565,5.896c-3.902,0.374-7.29-1.659-7.566-4.541
					c-0.276-2.882,2.663-5.522,6.565-5.896C407.4,272.723,410.787,274.756,411.064,277.639z"/>
				<path style="fill:#FFB846;" d="M294.715,263.522c-1.147,2.659-4.995,3.555-8.594,2.003s-5.588-4.967-4.441-7.625
					c1.147-2.659,4.995-3.555,8.594-2.003C293.873,257.449,295.861,260.863,294.715,263.522z"/>
				<path style="fill:#FFB846;" d="M302.078,293.672c-2.814,2.172-6.304,2.366-7.797,0.432c-1.493-1.933-0.422-5.261,2.392-7.434
					c2.814-2.172,6.304-2.366,7.797-0.433C305.963,288.172,304.892,291.5,302.078,293.672z"/>
				<path style="fill:#FFB846;" d="M350.356,314.783c-3.256,2.513-7.295,2.737-9.022,0.5c-1.727-2.237-0.488-6.088,2.768-8.602
					c3.256-2.513,7.295-2.738,9.022-0.5C354.851,308.418,353.612,312.269,350.356,314.783z"/>
			</g>
			<path style="fill:#D3D3D3;" d="M396.19,442.711c0,2.393-23.61,4.333-52.734,4.333c-29.124,0-52.734-1.94-52.734-4.333
				c0-2.393,23.61-4.333,52.734-4.333C372.581,438.378,396.19,440.318,396.19,442.711z"/>
		</g>
	</g>
</g>
<g id="Designed_by_Freepik">
	<g>
		<g>
			<path style="fill:#1D5989;" d="M180.308,477.664v-0.161c-0.218,0.249-0.432,0.452-0.644,0.608
				c-0.212,0.157-0.441,0.276-0.689,0.357c-0.247,0.082-0.517,0.122-0.81,0.122c-0.388,0-0.747-0.082-1.078-0.246
				c-0.33-0.164-0.616-0.399-0.857-0.704c-0.242-0.305-0.425-0.662-0.549-1.074c-0.124-0.412-0.187-0.857-0.187-1.335
				c0-1.013,0.248-1.804,0.742-2.369c0.495-0.565,1.146-0.848,1.953-0.848c0.467,0,0.861,0.081,1.181,0.24
				c0.321,0.16,0.633,0.408,0.938,0.739v-2.392c0-0.333,0.066-0.583,0.199-0.754c0.132-0.17,0.321-0.255,0.567-0.255
				c0.245,0,0.434,0.078,0.567,0.234c0.133,0.157,0.199,0.386,0.199,0.691v7.147c0,0.309-0.071,0.54-0.214,0.694
				c-0.143,0.154-0.326,0.231-0.552,0.231c-0.221,0-0.405-0.08-0.549-0.24C180.38,478.188,180.308,477.96,180.308,477.664z
				 M177.12,475.283c0,0.439,0.068,0.813,0.205,1.122c0.137,0.309,0.324,0.541,0.561,0.697c0.238,0.157,0.497,0.236,0.777,0.236
				c0.285,0,0.545-0.074,0.781-0.223c0.235-0.148,0.423-0.376,0.564-0.682c0.141-0.307,0.211-0.691,0.211-1.149
				c0-0.432-0.07-0.803-0.211-1.114c-0.14-0.31-0.33-0.547-0.57-0.712c-0.24-0.164-0.502-0.245-0.786-0.245
				c-0.297,0-0.562,0.084-0.796,0.252c-0.233,0.168-0.414,0.409-0.543,0.724C177.184,474.503,177.12,474.868,177.12,475.283z"/>
			<path style="fill:#1D5989;" d="M187.454,475.693h-3.17c0.004,0.367,0.078,0.692,0.223,0.973c0.144,0.281,0.336,0.493,0.576,0.635
				c0.24,0.143,0.504,0.213,0.793,0.213c0.194,0,0.371-0.022,0.531-0.067c0.16-0.046,0.315-0.117,0.466-0.214
				c0.15-0.096,0.289-0.201,0.415-0.312c0.126-0.111,0.29-0.262,0.493-0.452c0.083-0.071,0.202-0.107,0.357-0.107
				c0.166,0,0.3,0.046,0.403,0.137c0.103,0.091,0.155,0.219,0.155,0.386c0,0.147-0.058,0.317-0.172,0.513
				c-0.116,0.196-0.289,0.384-0.52,0.564c-0.232,0.18-0.522,0.329-0.873,0.448c-0.35,0.119-0.753,0.178-1.208,0.178
				c-1.04,0-1.85-0.297-2.428-0.89c-0.578-0.593-0.867-1.399-0.867-2.416c0-0.479,0.071-0.923,0.213-1.332
				c0.143-0.41,0.351-0.761,0.623-1.054c0.273-0.293,0.609-0.517,1.01-0.674c0.399-0.156,0.843-0.234,1.33-0.234
				c0.633,0,1.176,0.133,1.629,0.4c0.454,0.267,0.793,0.612,1.019,1.035c0.225,0.424,0.338,0.856,0.338,1.294
				c0,0.408-0.117,0.672-0.35,0.793C188.207,475.632,187.878,475.693,187.454,475.693z M184.284,474.773h2.939
				c-0.039-0.554-0.189-0.969-0.448-1.244c-0.259-0.275-0.6-0.413-1.024-0.413c-0.404,0-0.735,0.139-0.994,0.418
				C184.497,473.813,184.34,474.227,184.284,474.773z"/>
			<path style="fill:#1D5989;" d="M194.838,476.47c0,0.447-0.108,0.831-0.327,1.149c-0.217,0.319-0.539,0.56-0.965,0.725
				c-0.425,0.164-0.943,0.246-1.552,0.246c-0.582,0-1.08-0.089-1.496-0.267c-0.415-0.178-0.722-0.401-0.92-0.667
				c-0.198-0.268-0.297-0.535-0.297-0.805c0-0.178,0.063-0.33,0.19-0.457c0.126-0.126,0.287-0.19,0.481-0.19
				c0.17,0,0.3,0.041,0.391,0.124c0.091,0.083,0.179,0.2,0.261,0.35c0.166,0.29,0.366,0.504,0.597,0.648
				c0.231,0.142,0.547,0.214,0.947,0.214c0.325,0,0.591-0.073,0.798-0.217c0.208-0.145,0.311-0.31,0.311-0.496
				c0-0.285-0.107-0.492-0.324-0.622c-0.216-0.131-0.571-0.256-1.066-0.375c-0.558-0.138-1.012-0.284-1.362-0.436
				c-0.35-0.151-0.63-0.353-0.84-0.602c-0.21-0.25-0.315-0.557-0.315-0.92c0-0.324,0.097-0.631,0.291-0.92
				c0.194-0.288,0.48-0.519,0.858-0.691c0.377-0.173,0.833-0.259,1.368-0.259c0.42,0,0.797,0.043,1.131,0.131
				c0.335,0.086,0.614,0.204,0.837,0.35c0.224,0.146,0.394,0.308,0.51,0.486c0.117,0.178,0.175,0.352,0.175,0.523
				c0,0.185-0.062,0.338-0.187,0.457c-0.124,0.118-0.301,0.178-0.531,0.178c-0.166,0-0.308-0.048-0.424-0.143
				c-0.117-0.095-0.25-0.237-0.401-0.427c-0.123-0.158-0.266-0.285-0.433-0.38c-0.166-0.095-0.392-0.142-0.677-0.142
				c-0.293,0-0.536,0.062-0.73,0.187c-0.194,0.124-0.291,0.279-0.291,0.465c0,0.171,0.071,0.31,0.213,0.419
				c0.143,0.109,0.335,0.2,0.577,0.27c0.241,0.071,0.573,0.158,0.997,0.261c0.502,0.123,0.912,0.27,1.231,0.44
				c0.318,0.17,0.56,0.371,0.725,0.603C194.756,475.909,194.838,476.173,194.838,476.47z"/>
			<path style="fill:#1D5989;" d="M196.494,471.247c-0.225,0-0.418-0.07-0.579-0.208c-0.16-0.138-0.24-0.334-0.24-0.588
				c0-0.23,0.082-0.418,0.246-0.567s0.356-0.223,0.573-0.223c0.21,0,0.396,0.067,0.558,0.202c0.162,0.135,0.244,0.33,0.244,0.588
				c0,0.25-0.08,0.444-0.238,0.585C196.899,471.176,196.711,471.247,196.494,471.247z M197.295,472.921v4.683
				c0,0.325-0.077,0.571-0.232,0.737c-0.155,0.166-0.35,0.249-0.588,0.249c-0.238,0-0.431-0.085-0.579-0.255
				c-0.149-0.17-0.222-0.414-0.222-0.731v-4.636c0-0.32,0.074-0.561,0.222-0.724c0.148-0.162,0.341-0.243,0.579-0.243
				c0.238,0,0.433,0.081,0.588,0.243C197.218,472.406,197.295,472.632,197.295,472.921z"/>
			<path style="fill:#1D5989;" d="M204.395,473.188v4.707c0,0.538-0.058,1.001-0.173,1.39c-0.114,0.387-0.298,0.708-0.552,0.961
				c-0.253,0.253-0.585,0.441-0.994,0.563c-0.41,0.123-0.919,0.184-1.529,0.184c-0.558,0-1.057-0.078-1.496-0.234
				c-0.439-0.157-0.777-0.358-1.015-0.605c-0.237-0.247-0.356-0.502-0.356-0.763c0-0.198,0.067-0.359,0.202-0.483
				c0.134-0.125,0.297-0.187,0.486-0.187c0.237,0,0.445,0.105,0.623,0.314c0.087,0.107,0.177,0.216,0.27,0.324
				c0.093,0.109,0.196,0.202,0.309,0.28c0.113,0.076,0.248,0.134,0.407,0.172c0.158,0.037,0.341,0.056,0.546,0.056
				c0.42,0,0.745-0.058,0.977-0.175c0.232-0.117,0.394-0.28,0.487-0.49c0.093-0.209,0.147-0.433,0.163-0.673
				c0.016-0.24,0.027-0.624,0.035-1.155c-0.25,0.349-0.537,0.615-0.864,0.797c-0.326,0.182-0.715,0.273-1.166,0.273
				c-0.542,0-1.016-0.138-1.422-0.416c-0.405-0.277-0.717-0.665-0.934-1.163c-0.218-0.499-0.326-1.074-0.326-1.727
				c0-0.486,0.066-0.927,0.198-1.318c0.133-0.393,0.322-0.723,0.567-0.992c0.245-0.269,0.528-0.472,0.849-0.609
				c0.32-0.136,0.673-0.204,1.057-0.204c0.459,0,0.857,0.089,1.193,0.264c0.336,0.177,0.649,0.453,0.938,0.829v-0.22
				c0-0.281,0.069-0.498,0.207-0.653c0.139-0.154,0.317-0.231,0.535-0.231c0.313,0,0.52,0.103,0.623,0.306
				C204.343,472.51,204.395,472.804,204.395,473.188z M199.699,475.242c0,0.657,0.143,1.154,0.43,1.49
				c0.287,0.337,0.658,0.505,1.113,0.505c0.269,0,0.523-0.073,0.762-0.217c0.24-0.145,0.435-0.362,0.585-0.653
				c0.15-0.291,0.226-0.644,0.226-1.06c0-0.66-0.145-1.176-0.436-1.543c-0.291-0.368-0.674-0.552-1.149-0.552
				c-0.463,0-0.834,0.176-1.113,0.529C199.838,474.092,199.699,474.593,199.699,475.242z"/>
			<path style="fill:#1D5989;" d="M206.97,472.897v0.196c0.284-0.376,0.596-0.652,0.935-0.828c0.339-0.176,0.727-0.264,1.166-0.264
				c0.428,0,0.809,0.093,1.146,0.28c0.336,0.186,0.588,0.449,0.753,0.789c0.107,0.198,0.176,0.413,0.208,0.641
				c0.032,0.23,0.048,0.522,0.048,0.879v3.015c0,0.325-0.074,0.571-0.223,0.737c-0.148,0.166-0.341,0.249-0.579,0.249
				c-0.242,0-0.437-0.085-0.588-0.255c-0.151-0.17-0.225-0.414-0.225-0.731v-2.701c0-0.534-0.075-0.943-0.223-1.226
				c-0.149-0.283-0.444-0.425-0.888-0.425c-0.288,0-0.552,0.086-0.789,0.258c-0.238,0.173-0.412,0.409-0.523,0.71
				c-0.079,0.242-0.119,0.692-0.119,1.353v2.03c0,0.328-0.077,0.576-0.228,0.74c-0.152,0.164-0.349,0.246-0.59,0.246
				c-0.234,0-0.425-0.085-0.576-0.255c-0.15-0.17-0.225-0.414-0.225-0.731v-4.683c0-0.309,0.067-0.54,0.202-0.692
				c0.135-0.152,0.319-0.228,0.552-0.228c0.143,0,0.272,0.034,0.387,0.101c0.114,0.068,0.207,0.168,0.276,0.302
				C206.936,472.538,206.97,472.703,206.97,472.897z"/>
			<path style="fill:#1D5989;" d="M216.829,475.693h-3.17c0.004,0.367,0.078,0.692,0.223,0.973c0.144,0.281,0.336,0.493,0.576,0.635
				c0.239,0.143,0.503,0.213,0.792,0.213c0.194,0,0.371-0.022,0.532-0.067c0.16-0.046,0.315-0.117,0.466-0.214
				c0.15-0.096,0.288-0.201,0.416-0.312c0.126-0.111,0.29-0.262,0.492-0.452c0.083-0.071,0.202-0.107,0.356-0.107
				c0.166,0,0.301,0.046,0.404,0.137c0.103,0.091,0.154,0.219,0.154,0.386c0,0.147-0.057,0.317-0.172,0.513
				c-0.115,0.196-0.288,0.384-0.52,0.564c-0.232,0.18-0.522,0.329-0.872,0.448c-0.35,0.119-0.753,0.178-1.208,0.178
				c-1.041,0-1.85-0.297-2.428-0.89c-0.577-0.593-0.866-1.399-0.866-2.416c0-0.479,0.071-0.923,0.214-1.332
				c0.143-0.41,0.351-0.761,0.624-1.054c0.273-0.293,0.609-0.517,1.009-0.674c0.399-0.156,0.843-0.234,1.33-0.234
				c0.633,0,1.175,0.133,1.629,0.4c0.453,0.267,0.793,0.612,1.019,1.035c0.225,0.424,0.339,0.856,0.339,1.294
				c0,0.408-0.117,0.672-0.35,0.793C217.582,475.632,217.253,475.693,216.829,475.693z M213.659,474.773h2.938
				c-0.039-0.554-0.189-0.969-0.448-1.244c-0.259-0.275-0.601-0.413-1.024-0.413c-0.404,0-0.736,0.139-0.995,0.418
				C213.872,473.813,213.715,474.227,213.659,474.773z"/>
			<path style="fill:#1D5989;" d="M223.435,477.664v-0.161c-0.218,0.249-0.432,0.452-0.644,0.608
				c-0.212,0.157-0.441,0.276-0.689,0.357c-0.247,0.082-0.517,0.122-0.81,0.122c-0.389,0-0.747-0.082-1.078-0.246
				c-0.331-0.164-0.616-0.399-0.858-0.704c-0.242-0.305-0.424-0.662-0.549-1.074c-0.125-0.412-0.187-0.857-0.187-1.335
				c0-1.013,0.247-1.804,0.742-2.369c0.495-0.565,1.146-0.848,1.953-0.848c0.467,0,0.861,0.081,1.181,0.24
				c0.32,0.16,0.633,0.408,0.938,0.739v-2.392c0-0.333,0.066-0.583,0.199-0.754c0.132-0.17,0.322-0.255,0.567-0.255
				c0.245,0,0.434,0.078,0.567,0.234c0.132,0.157,0.199,0.386,0.199,0.691v7.147c0,0.309-0.071,0.54-0.214,0.694
				c-0.143,0.154-0.326,0.231-0.552,0.231c-0.221,0-0.405-0.08-0.549-0.24C223.507,478.188,223.435,477.96,223.435,477.664z
				 M220.248,475.283c0,0.439,0.068,0.813,0.204,1.122c0.136,0.309,0.324,0.541,0.562,0.697c0.237,0.157,0.496,0.236,0.777,0.236
				c0.285,0,0.546-0.074,0.781-0.223c0.236-0.148,0.424-0.376,0.564-0.682c0.141-0.307,0.211-0.691,0.211-1.149
				c0-0.432-0.07-0.803-0.211-1.114c-0.14-0.31-0.33-0.547-0.57-0.712c-0.24-0.164-0.502-0.245-0.787-0.245
				c-0.296,0-0.562,0.084-0.795,0.252c-0.233,0.168-0.415,0.409-0.543,0.724C220.312,474.503,220.248,474.868,220.248,475.283z"/>
			<path style="fill:#1D5989;" d="M230.059,470.516v2.475c0.305-0.316,0.615-0.559,0.932-0.727c0.316-0.168,0.709-0.252,1.176-0.252
				c0.538,0,1.01,0.128,1.416,0.382c0.405,0.256,0.72,0.626,0.944,1.111c0.223,0.484,0.336,1.06,0.336,1.725
				c0,0.491-0.063,0.94-0.187,1.35c-0.125,0.409-0.306,0.765-0.543,1.065c-0.238,0.301-0.525,0.534-0.864,0.698
				c-0.339,0.164-0.712,0.246-1.119,0.246c-0.25,0-0.484-0.029-0.704-0.089c-0.22-0.059-0.407-0.137-0.561-0.234
				c-0.154-0.096-0.286-0.197-0.395-0.3c-0.109-0.102-0.253-0.257-0.431-0.463v0.161c0,0.305-0.073,0.535-0.22,0.692
				c-0.146,0.156-0.332,0.234-0.558,0.234c-0.23,0-0.413-0.077-0.549-0.234c-0.137-0.157-0.205-0.388-0.205-0.692v-7.077
				c0-0.328,0.066-0.577,0.198-0.745c0.133-0.168,0.318-0.252,0.555-0.252c0.25,0,0.441,0.08,0.576,0.24
				C229.992,469.991,230.059,470.219,230.059,470.516z M230.136,475.331c0,0.645,0.147,1.14,0.442,1.486
				c0.295,0.347,0.682,0.521,1.161,0.521c0.407,0,0.759-0.177,1.053-0.532c0.295-0.355,0.442-0.862,0.442-1.523
				c0-0.427-0.061-0.796-0.184-1.104c-0.123-0.309-0.297-0.548-0.522-0.715c-0.226-0.168-0.489-0.252-0.79-0.252
				c-0.309,0-0.584,0.084-0.825,0.252c-0.241,0.168-0.431,0.411-0.57,0.73C230.205,474.512,230.136,474.891,230.136,475.331z"/>
			<path style="fill:#1D5989;" d="M236.963,478.792l0.148-0.363l-1.995-5.022c-0.122-0.288-0.184-0.499-0.184-0.629
				c0-0.139,0.036-0.267,0.107-0.385c0.071-0.119,0.169-0.214,0.294-0.285c0.125-0.072,0.254-0.107,0.389-0.107
				c0.233,0,0.409,0.074,0.529,0.223c0.119,0.148,0.223,0.361,0.314,0.638l1.372,3.989l1.3-3.71c0.103-0.3,0.196-0.536,0.279-0.706
				c0.083-0.17,0.171-0.285,0.264-0.344c0.093-0.06,0.225-0.09,0.395-0.09c0.123,0,0.24,0.032,0.353,0.098
				c0.113,0.065,0.2,0.153,0.261,0.264c0.061,0.111,0.092,0.227,0.092,0.35c-0.016,0.075-0.042,0.182-0.077,0.321
				c-0.036,0.138-0.079,0.28-0.13,0.421l-2.113,5.533c-0.182,0.487-0.36,0.868-0.535,1.145c-0.174,0.277-0.404,0.491-0.691,0.638
				c-0.287,0.149-0.674,0.223-1.161,0.223c-0.475,0-0.831-0.051-1.068-0.154c-0.238-0.104-0.357-0.292-0.357-0.565
				c0-0.186,0.056-0.33,0.169-0.43c0.112-0.101,0.28-0.152,0.501-0.152c0.087,0,0.173,0.012,0.256,0.037
				c0.103,0.023,0.192,0.035,0.267,0.035c0.186,0,0.333-0.027,0.44-0.084c0.107-0.055,0.202-0.151,0.288-0.288
				C236.754,479.258,236.852,479.056,236.963,478.792z"/>
		</g>
		<g>
			<path style="fill:#1D5989;" d="M260.439,472.141h0.386v-0.487c0-0.509,0.062-0.911,0.192-1.211
				c0.128-0.299,0.347-0.516,0.654-0.653c0.307-0.135,0.727-0.204,1.26-0.204c0.95,0,1.42,0.23,1.42,0.697
				c0,0.149-0.049,0.278-0.15,0.385c-0.096,0.106-0.214,0.16-0.349,0.16c-0.062,0-0.174-0.012-0.329-0.037
				c-0.148-0.021-0.283-0.035-0.389-0.035c-0.292,0-0.479,0.088-0.566,0.259c-0.079,0.172-0.122,0.418-0.122,0.74v0.386h0.396
				c0.62,0,0.926,0.185,0.926,0.56c0,0.262-0.079,0.432-0.245,0.503c-0.163,0.071-0.39,0.107-0.68,0.107h-0.396v4.294
				c0,0.319-0.075,0.563-0.231,0.73c-0.151,0.17-0.346,0.254-0.589,0.254c-0.229,0-0.419-0.084-0.574-0.254
				c-0.153-0.167-0.228-0.411-0.228-0.73v-4.294h-0.446c-0.243,0-0.427-0.053-0.558-0.164c-0.131-0.107-0.197-0.25-0.197-0.424
				C259.625,472.333,259.896,472.141,260.439,472.141L260.439,472.141z"/>
			<path style="fill:#1D5989;" d="M265.745,476.249v1.355c0,0.327-0.083,0.574-0.234,0.737c-0.154,0.166-0.349,0.247-0.586,0.247
				c-0.239,0-0.43-0.082-0.579-0.25c-0.148-0.165-0.225-0.41-0.225-0.734v-4.514c0-0.729,0.263-1.093,0.788-1.093
				c0.271,0,0.465,0.084,0.583,0.255c0.118,0.171,0.184,0.421,0.198,0.755c0.192-0.334,0.39-0.584,0.593-0.755
				c0.207-0.171,0.477-0.255,0.818-0.255c0.343,0,0.67,0.084,0.991,0.255c0.322,0.171,0.482,0.398,0.482,0.678
				c0,0.197-0.069,0.363-0.204,0.488c-0.137,0.131-0.284,0.195-0.441,0.195c-0.062,0-0.207-0.039-0.433-0.112
				c-0.228-0.071-0.43-0.108-0.602-0.108c-0.237,0-0.433,0.064-0.582,0.186c-0.151,0.128-0.269,0.311-0.353,0.554
				c-0.081,0.247-0.137,0.541-0.17,0.878C265.759,475.35,265.745,475.763,265.745,476.249L265.745,476.249z"/>
			<path style="fill:#1D5989;" d="M273.196,475.692h-3.171c0.006,0.367,0.078,0.694,0.222,0.974
				c0.147,0.279,0.337,0.491,0.578,0.635c0.24,0.142,0.502,0.212,0.793,0.212c0.194,0,0.371-0.021,0.531-0.07
				c0.159-0.043,0.316-0.116,0.466-0.213c0.151-0.095,0.287-0.199,0.415-0.313c0.126-0.109,0.292-0.26,0.494-0.449
				c0.084-0.071,0.203-0.109,0.355-0.109c0.168,0,0.301,0.046,0.406,0.139c0.104,0.092,0.152,0.219,0.152,0.386
				c0,0.147-0.055,0.317-0.167,0.512c-0.117,0.198-0.289,0.385-0.522,0.566c-0.234,0.178-0.524,0.33-0.873,0.446
				c-0.35,0.119-0.754,0.179-1.207,0.179c-1.044,0-1.853-0.295-2.429-0.889c-0.578-0.595-0.87-1.401-0.87-2.418
				c0-0.479,0.073-0.924,0.217-1.334c0.14-0.411,0.348-0.76,0.624-1.055c0.272-0.294,0.606-0.518,1.008-0.674
				c0.399-0.156,0.842-0.234,1.33-0.234c0.632,0,1.175,0.134,1.629,0.403c0.452,0.264,0.796,0.61,1.018,1.034
				c0.226,0.425,0.339,0.855,0.339,1.296c0,0.405-0.118,0.669-0.351,0.791C273.947,475.631,273.619,475.692,273.196,475.692
				L273.196,475.692z M270.024,474.77h2.938c-0.039-0.553-0.186-0.969-0.446-1.241c-0.261-0.277-0.599-0.413-1.025-0.413
				c-0.403,0-0.736,0.137-0.995,0.418C270.237,473.813,270.079,474.224,270.024,474.77L270.024,474.77z"/>
			<path style="fill:#1D5989;" d="M279.938,475.692h-3.171c0.004,0.367,0.078,0.694,0.222,0.974
				c0.145,0.279,0.337,0.491,0.576,0.635c0.239,0.142,0.504,0.212,0.795,0.212c0.192,0,0.37-0.021,0.528-0.07
				c0.162-0.043,0.316-0.116,0.469-0.213c0.151-0.095,0.287-0.199,0.415-0.313c0.124-0.109,0.29-0.26,0.493-0.449
				c0.084-0.071,0.204-0.109,0.355-0.109c0.168,0,0.302,0.046,0.406,0.139c0.103,0.092,0.15,0.219,0.15,0.386
				c0,0.147-0.054,0.317-0.171,0.512c-0.111,0.198-0.284,0.385-0.519,0.566c-0.231,0.178-0.525,0.33-0.872,0.446
				c-0.349,0.119-0.755,0.179-1.209,0.179c-1.042,0-1.849-0.295-2.429-0.889c-0.577-0.595-0.868-1.401-0.868-2.418
				c0-0.479,0.073-0.924,0.217-1.334c0.142-0.411,0.349-0.76,0.623-1.055c0.272-0.294,0.608-0.518,1.009-0.674
				c0.398-0.156,0.844-0.234,1.331-0.234c0.63,0,1.174,0.134,1.633,0.403c0.45,0.264,0.791,0.61,1.013,1.034
				c0.225,0.425,0.341,0.855,0.341,1.296c0,0.405-0.12,0.669-0.351,0.791C280.688,475.631,280.36,475.692,279.938,475.692
				L279.938,475.692z M276.767,474.77h2.938c-0.04-0.553-0.19-0.969-0.447-1.241c-0.263-0.277-0.601-0.413-1.027-0.413
				c-0.403,0-0.735,0.137-0.995,0.418C276.978,473.813,276.819,474.224,276.767,474.77L276.767,474.77z"/>
			<path style="fill:#1D5989;" d="M283.488,472.909v0.194c0.304-0.375,0.621-0.651,0.953-0.828c0.324-0.178,0.699-0.267,1.114-0.267
				c0.497,0,0.96,0.13,1.379,0.386c0.419,0.259,0.749,0.635,0.993,1.129c0.244,0.497,0.366,1.081,0.366,1.758
				c0,0.497-0.07,0.957-0.21,1.376c-0.14,0.418-0.336,0.767-0.581,1.05c-0.246,0.281-0.535,0.501-0.868,0.654
				c-0.339,0.151-0.695,0.227-1.08,0.227c-0.461,0-0.853-0.093-1.166-0.28c-0.314-0.182-0.614-0.458-0.901-0.816v2.433
				c0,0.71-0.26,1.069-0.778,1.069c-0.306,0-0.505-0.091-0.607-0.275c-0.095-0.187-0.146-0.452-0.146-0.807v-6.996
				c0-0.309,0.066-0.537,0.2-0.692c0.134-0.15,0.32-0.228,0.553-0.228c0.231,0,0.416,0.078,0.56,0.234
				C283.417,472.39,283.488,472.612,283.488,472.909L283.488,472.909z M286.665,475.264c0-0.428-0.067-0.796-0.197-1.102
				c-0.131-0.308-0.312-0.542-0.541-0.705c-0.229-0.164-0.489-0.248-0.77-0.248c-0.446,0-0.824,0.178-1.13,0.527
				c-0.308,0.354-0.462,0.872-0.462,1.558c0,0.641,0.153,1.146,0.46,1.504c0.304,0.358,0.679,0.536,1.133,0.536
				c0.268,0,0.519-0.079,0.748-0.233c0.232-0.158,0.416-0.392,0.552-0.704C286.595,476.085,286.665,475.706,286.665,475.264
				L286.665,475.264z"/>
			<path style="fill:#1D5989;" d="M289.925,471.243c-0.226,0-0.418-0.071-0.577-0.209c-0.162-0.139-0.242-0.333-0.242-0.585
				c0-0.23,0.082-0.419,0.248-0.569c0.164-0.146,0.354-0.222,0.571-0.222c0.212,0,0.397,0.067,0.559,0.2
				c0.162,0.137,0.244,0.334,0.244,0.591c0,0.25-0.079,0.444-0.236,0.585C290.333,471.171,290.145,471.243,289.925,471.243
				L289.925,471.243z M290.728,472.917v4.689c0,0.322-0.078,0.568-0.231,0.732c-0.156,0.168-0.35,0.25-0.588,0.25
				c-0.238,0-0.428-0.084-0.58-0.254c-0.146-0.173-0.222-0.416-0.222-0.729v-4.642c0-0.319,0.076-0.559,0.222-0.721
				c0.152-0.165,0.342-0.245,0.58-0.245c0.238,0,0.432,0.079,0.588,0.245C290.65,472.404,290.728,472.631,290.728,472.917
				L290.728,472.917z"/>
			<path style="fill:#1D5989;" d="M295.952,477.849l-1.427-2.354l-0.88,0.83v1.291c0,0.312-0.083,0.551-0.248,0.718
				c-0.161,0.17-0.354,0.254-0.566,0.254c-0.249,0-0.447-0.082-0.588-0.25c-0.142-0.165-0.215-0.41-0.215-0.734v-6.915
				c0-0.358,0.071-0.632,0.207-0.821c0.139-0.19,0.341-0.283,0.596-0.283c0.25,0,0.445,0.086,0.593,0.257
				c0.146,0.169,0.221,0.421,0.221,0.751v3.933l1.822-1.914c0.226-0.235,0.395-0.4,0.517-0.486c0.118-0.087,0.262-0.13,0.431-0.13
				c0.204,0,0.371,0.065,0.51,0.193c0.132,0.129,0.2,0.291,0.2,0.483c0,0.237-0.221,0.555-0.659,0.951l-0.86,0.789l1.662,2.614
				c0.121,0.196,0.212,0.34,0.265,0.441c0.053,0.099,0.081,0.2,0.081,0.289c0,0.258-0.071,0.459-0.213,0.61
				c-0.14,0.148-0.327,0.221-0.554,0.221c-0.198,0-0.352-0.051-0.458-0.16C296.282,478.32,296.133,478.126,295.952,477.849
				L295.952,477.849z"/>
			<path style="fill:#1D5989;" d="M299.474,478.588c-0.245,0-0.455-0.079-0.634-0.238c-0.178-0.156-0.268-0.378-0.268-0.665
				c0-0.241,0.086-0.449,0.256-0.622c0.172-0.174,0.38-0.262,0.63-0.262c0.248,0,0.46,0.087,0.639,0.258
				c0.175,0.172,0.264,0.383,0.264,0.626c0,0.283-0.089,0.505-0.264,0.662C299.919,478.51,299.711,478.588,299.474,478.588
				L299.474,478.588z"/>
			<path style="fill:#1D5989;" d="M307.536,476.582c0,0.2-0.06,0.418-0.182,0.646c-0.12,0.231-0.305,0.449-0.553,0.656
				c-0.247,0.208-0.557,0.377-0.935,0.502c-0.375,0.126-0.8,0.192-1.269,0.192c-1.004,0-1.786-0.293-2.349-0.876
				c-0.56-0.585-0.841-1.368-0.841-2.35c0-0.667,0.128-1.254,0.387-1.765c0.255-0.509,0.628-0.904,1.113-1.183
				c0.487-0.28,1.072-0.419,1.746-0.419c0.421,0,0.805,0.061,1.158,0.184c0.35,0.122,0.645,0.282,0.891,0.474
				c0.242,0.197,0.428,0.402,0.556,0.62c0.129,0.22,0.192,0.426,0.192,0.617c0,0.192-0.071,0.357-0.214,0.492
				c-0.147,0.134-0.322,0.203-0.524,0.203c-0.137,0-0.249-0.035-0.338-0.104c-0.09-0.07-0.19-0.181-0.299-0.339
				c-0.198-0.299-0.404-0.526-0.622-0.674c-0.214-0.152-0.488-0.226-0.821-0.226c-0.476,0-0.865,0.186-1.158,0.561
				c-0.292,0.372-0.44,0.887-0.44,1.534c0,0.305,0.039,0.587,0.114,0.842c0.073,0.254,0.182,0.472,0.325,0.652
				c0.144,0.179,0.315,0.315,0.516,0.409c0.203,0.096,0.425,0.141,0.665,0.141c0.326,0,0.604-0.075,0.836-0.225
				c0.235-0.151,0.439-0.38,0.616-0.689c0.099-0.182,0.204-0.323,0.318-0.427c0.114-0.102,0.256-0.156,0.422-0.156
				c0.198,0,0.363,0.077,0.491,0.227C307.469,476.251,307.536,476.413,307.536,476.582L307.536,476.582z"/>
			<path style="fill:#1D5989;" d="M314.53,475.294c0,0.481-0.076,0.928-0.222,1.337c-0.155,0.408-0.37,0.758-0.656,1.049
				c-0.284,0.293-0.626,0.518-1.02,0.675c-0.4,0.154-0.844,0.234-1.337,0.234c-0.491,0-0.933-0.08-1.326-0.239
				c-0.389-0.156-0.732-0.384-1.016-0.676c-0.288-0.298-0.505-0.646-0.657-1.048c-0.143-0.402-0.219-0.846-0.219-1.332
				c0-0.491,0.078-0.941,0.224-1.349c0.151-0.409,0.368-0.757,0.649-1.046c0.282-0.289,0.621-0.511,1.019-0.669
				c0.402-0.156,0.843-0.234,1.326-0.234c0.49,0,0.936,0.078,1.337,0.239c0.398,0.157,0.739,0.384,1.027,0.674
				c0.286,0.297,0.502,0.643,0.65,1.045C314.455,474.362,314.53,474.805,314.53,475.294L314.53,475.294z M312.903,475.294
				c0-0.662-0.146-1.176-0.436-1.543c-0.289-0.372-0.681-0.555-1.171-0.555c-0.317,0-0.597,0.082-0.839,0.246
				c-0.242,0.163-0.425,0.406-0.556,0.727c-0.131,0.321-0.197,0.696-0.197,1.124c0,0.424,0.064,0.792,0.193,1.108
				c0.13,0.319,0.314,0.561,0.554,0.729c0.241,0.167,0.522,0.253,0.845,0.253c0.49,0,0.882-0.185,1.171-0.557
				C312.756,476.458,312.903,475.945,312.903,475.294L312.903,475.294z"/>
			<path style="fill:#1D5989;" d="M320.712,475.413v2.154c0,0.342-0.075,0.594-0.231,0.767c-0.156,0.17-0.357,0.255-0.611,0.255
				c-0.245,0-0.446-0.085-0.594-0.255c-0.154-0.173-0.233-0.425-0.233-0.767v-2.582c0-0.408-0.013-0.726-0.04-0.953
				c-0.029-0.221-0.105-0.41-0.226-0.552c-0.123-0.147-0.318-0.22-0.582-0.22c-0.532,0-0.88,0.181-1.048,0.55
				c-0.167,0.36-0.254,0.883-0.254,1.567v2.189c0,0.336-0.076,0.591-0.226,0.765c-0.156,0.171-0.354,0.257-0.603,0.257
				c-0.247,0-0.448-0.087-0.604-0.257c-0.157-0.173-0.235-0.428-0.235-0.765v-4.637c0-0.306,0.07-0.538,0.209-0.695
				c0.143-0.16,0.329-0.239,0.556-0.239c0.223,0,0.407,0.077,0.557,0.222c0.148,0.149,0.221,0.354,0.221,0.615v0.153
				c0.283-0.334,0.584-0.582,0.903-0.738c0.323-0.162,0.676-0.241,1.071-0.241c0.407,0,0.757,0.082,1.049,0.244
				c0.293,0.163,0.533,0.41,0.725,0.735c0.275-0.33,0.568-0.577,0.881-0.738c0.313-0.16,0.658-0.241,1.039-0.241
				c0.441,0,0.826,0.089,1.146,0.262c0.319,0.174,0.558,0.425,0.717,0.747c0.138,0.295,0.206,0.756,0.206,1.385v3.164
				c0,0.342-0.076,0.594-0.23,0.767c-0.154,0.17-0.359,0.255-0.612,0.255c-0.247,0-0.446-0.087-0.603-0.257
				c-0.156-0.173-0.235-0.428-0.235-0.765v-2.726c0-0.349-0.015-0.627-0.043-0.836c-0.029-0.211-0.11-0.388-0.239-0.529
				c-0.133-0.142-0.332-0.215-0.596-0.215c-0.214,0-0.416,0.066-0.609,0.192c-0.192,0.124-0.342,0.298-0.45,0.508
				C320.774,474.235,320.712,474.719,320.712,475.413L320.712,475.413z"/>
		</g>
		<g>
			<path style="fill:#1D5989;" d="M245.272,474.902c-0.001-0.003-0.001-0.006-0.001-0.011
				C245.271,474.896,245.271,474.899,245.272,474.902z"/>
			<path style="fill:#1D5989;" d="M245.354,475.42c0.001,0,0.001,0,0.001,0c-0.031-0.148-0.055-0.294-0.074-0.439
				C245.3,475.127,245.324,475.274,245.354,475.42z"/>
			<path style="fill:#1D5989;" d="M245.89,476.924c-0.004-0.006-0.007-0.013-0.011-0.021
				C245.883,476.91,245.887,476.918,245.89,476.924z"/>
			<path style="fill:#1D5989;" d="M245.839,476.824c-0.014-0.027-0.027-0.056-0.041-0.084
				C245.811,476.77,245.825,476.796,245.839,476.824z"/>
			<path style="fill:#1D5989;" d="M245.504,475.999c0.079,0.25,0.175,0.493,0.286,0.724c-0.113-0.236-0.206-0.479-0.284-0.724
				H245.504z"/>
			<path style="fill:#1D5989;" d="M251.545,468.691c0.313,0,0.545,0.025,0.809,0.069l0.075-0.477c0,0-0.732-0.225-1.694-0.146
				l-0.076-0.259c0.299-0.063,0.524-0.329,0.524-0.646c0-0.364-0.296-0.659-0.661-0.659c-0.364,0-0.66,0.295-0.66,0.659
				c0,0.317,0.224,0.583,0.522,0.646l0.084,0.289c-1.021,0.14-1.834,0.539-1.834,0.539l0.144,0.441
				c0.618-0.206,1.154-0.331,1.64-0.383C250.895,468.714,251.253,468.691,251.545,468.691z"/>
			<path style="fill:#1D5989;" d="M245.878,471.103l0.004-0.005c0.024-0.031,0.047-0.06,0.071-0.089l-0.195-0.141l-0.305-0.223
				c-0.017,0.024-0.497,0.465-0.876,1.28c-0.016-0.026-0.035-0.051-0.056-0.074c-0.114-0.124-0.272-0.187-0.474-0.184
				c-0.003,0-0.006,0-0.009,0c-0.125,0-0.211-0.042-0.267-0.092c0.056-0.071,0.089-0.16,0.089-0.258c0-0.23-0.187-0.418-0.418-0.418
				c-0.23,0-0.418,0.188-0.418,0.418c0,0.231,0.187,0.418,0.418,0.418c0.036,0,0.071-0.006,0.104-0.013
				c0.103,0.114,0.266,0.214,0.505,0.209c0.123-0.001,0.213,0.03,0.273,0.097c0.069,0.076,0.093,0.185,0.1,0.267
				c-0.001,0.001-0.001,0.003-0.002,0.003c-0.272,0.743-0.194,1.669-0.194,1.669l0.661,0.026c0.013-0.337,0.062-0.926,0.232-1.394
				C245.449,471.693,245.861,471.127,245.878,471.103z"/>
			<path style="fill:#1D5989;" d="M257.295,469.244c-0.23,0-0.418,0.187-0.418,0.418c0,0.036,0.005,0.07,0.015,0.103
				c-0.115,0.104-0.214,0.267-0.211,0.507c0.002,0.123-0.03,0.212-0.096,0.273c-0.053,0.047-0.12,0.072-0.185,0.088
				c-0.492-0.689-1.098-1.11-1.098-1.11l-0.474,0.508c0.358,0.326,0.725,0.734,1.08,1.244c0.246,0.352,0.499,0.806,0.71,1.259
				l0.64-0.304c0,0-0.292-0.722-0.704-1.37c0.071-0.025,0.143-0.064,0.207-0.12c0.125-0.113,0.187-0.273,0.183-0.474
				c-0.001-0.13,0.041-0.218,0.093-0.276c0.071,0.054,0.161,0.089,0.258,0.089c0.232,0,0.419-0.187,0.419-0.418
				C257.714,469.431,257.527,469.244,257.295,469.244z"/>
			<path style="fill:#1D5989;" d="M255.634,474.995c-0.881,0.429-2.33,0.996-4.238,1.262c-0.749,0.104-1.475,0.142-2.143,0.142
				c-0.869,0-1.637-0.065-2.226-0.139c-0.673-0.085-1.199-0.189-1.52-0.261c0.077,0.245,0.171,0.488,0.284,0.724
				c0.002,0.006,0.005,0.013,0.008,0.017c0.013,0.027,0.027,0.056,0.041,0.084c0.014,0.027,0.027,0.054,0.041,0.079
				c0.004,0.007,0.007,0.015,0.011,0.021c0.189,0.356,0.417,0.684,0.675,0.968c0.9,0.985,1.817,1.14,1.826,1.141l0.014,0.002
				l0.014,0.005c0.008,0.003,0.821,0.266,2.057,0.266c1.216,0,2.409-0.245,3.546-0.729c0.842-0.431,1.639-1.085,2.034-1.669
				c0.305-0.452,0.525-0.933,0.656-1.434c0.069-0.266,0.125-0.692,0.092-1.141C256.556,474.5,256.165,474.737,255.634,474.995z"/>
			<path style="fill:#1D5989;" d="M246.161,471.312c-0.026,0.037-0.408,0.578-0.71,1.408c-0.226,0.622-0.216,1.527-0.216,1.538
				v0.002c0,0.212,0.012,0.423,0.035,0.632c0,0.005,0,0.008,0.001,0.011c0.003,0.027,0.007,0.052,0.01,0.079
				c0.019,0.145,0.043,0.291,0.074,0.439c0.438,0.111,3.049,0.72,5.968,0.314c1.829-0.255,3.218-0.795,4.062-1.204
				c0.701-0.34,1.151-0.648,1.325-0.774c-0.173-0.643-0.651-1.65-1.09-2.279c-1.253-1.791-2.604-2.25-3.298-2.365
				c-0.265-0.043-0.477-0.068-0.777-0.068c-0.279,0-0.626,0.022-1.089,0.071c-0.465,0.048-0.982,0.17-1.583,0.372
				c-0.842,0.282-1.605,0.724-2.204,1.28l-0.02,0.019C246.56,470.868,246.374,471.04,246.161,471.312z M253.829,470.895
				c0.601,0,1.089,0.488,1.089,1.089s-0.489,1.09-1.089,1.09c-0.601,0-1.089-0.489-1.089-1.09S253.228,470.895,253.829,470.895z
				 M248.678,470.852c0.973,0,1.761,0.789,1.761,1.761c0,0.972-0.788,1.759-1.761,1.759c-0.972,0-1.76-0.787-1.76-1.759
				C246.918,471.64,247.707,470.852,248.678,470.852z"/>
		</g>
	</g>
</g>
</svg>
